<?xml version="1.0" standalone="no"?>
<!DOCTYPE svg PUBLIC "-//W3C//DTD SVG 1.1//EN" "http://www.w3.org/Graphics/SVG/1.1/DTD/svg11.dtd" >
<svg xmlns="http://www.w3.org/2000/svg" xmlns:xlink="http://www.w3.org/1999/xlink" version="1.1">
<metadata>
Created by FontForge 20170731 at Thu Jun 21 17:58:10 2018
 By Aleksey,,,
(c) 1993, 1994, 2001, 2002 Adobe Systems Incorporated. All rights reserved.
</metadata>
<defs>
<font id="AvakinMedium" horiz-adv-x="604" >
  <font-face 
    font-family="Avakin"
    font-weight="600"
    font-stretch="normal"
    units-per-em="1024"
    panose-1="0 0 0 0 0 0 0 0 0 0"
    ascent="819"
    descent="-205"
    x-height="557"
    cap-height="758"
    bbox="-130 -274 1182 1007"
    underline-thickness="1"
    underline-position="-2"
    unicode-range="U+000D-FB02"
  />
<missing-glyph horiz-adv-x="543" 
d="M51 102h307v553h-307v-139v-414zM0 707h410v-656h-410v656z" />
    <glyph glyph-name=".notdef" horiz-adv-x="543" 
d="M51 102h307v553h-307v-139v-414zM0 707h410v-656h-410v656z" />
    <glyph glyph-name=".null" horiz-adv-x="0" 
 />
    <glyph glyph-name=".null" horiz-adv-x="0" 
 />
    <glyph glyph-name="nonmarkingreturn" unicode="&#xd;" horiz-adv-x="0" 
 />
    <glyph glyph-name="space" unicode=" " horiz-adv-x="302" 
 />
    <glyph glyph-name="exclam" unicode="!" horiz-adv-x="307" 
d="M209 758h-111v-136v-408h111v544zM204 16q-10 -9 -23 -15q-14 -6 -27 -6q-14 0 -27 6q-14 6 -24 15q-9 10 -15 23q-5 14 -5 27q0 14 5 27q6 14 15 23q10 10 24 16q13 5 27 5q13 0 27 -5q13 -6 23 -16q9 -9 15 -23q5 -13 5 -27q0 -13 -5 -27q-6 -13 -15 -23z" />
    <glyph glyph-name="quotedbl" unicode="&#x22;" horiz-adv-x="415" 
d="M169 455v303h-83v-76v-227h83zM329 455v303h-84v-303h84z" />
    <glyph glyph-name="numbersign" unicode="#" 
d="M411 255h134q2 18 8 73h-132q3 26 14 104h134q3 19 10 74h-133q7 47 27 190h-76q-6 -47 -26 -190h-110q7 47 27 190h-76q-7 -47 -27 -190h-127q-2 -19 -9 -74h126q-3 -26 -14 -104h-127q-2 -18 -8 -73h125q-8 -52 -30 -209h77q7 52 28 209h110q-7 -52 -29 -209h75
q7 52 29 209zM346 328h-109q3 26 14 104h109q-3 -26 -14 -104z" />
    <glyph glyph-name="dollar" unicode="$" 
d="M351 830h-90v-94q-64 -13 -112 -61q-49 -48 -49 -131q0 -32 8 -57q7 -25 20 -44q23 -36 57 -54t62 -27q60 -19 112 -46t52 -93q0 -43 -30 -75q-31 -31 -76 -31q-41 0 -74 29q-34 29 -37 84h-111q2 -69 48 -129q46 -59 130 -69v-101h90v101q82 18 126 77t44 125
q0 70 -45 120t-116 75q-66 22 -108 46q-42 23 -42 79q0 43 29 71q29 27 66 27q33 0 63 -25t34 -72h102q-2 68 -41 118t-112 63v94z" />
    <glyph glyph-name="percent" unicode="%" horiz-adv-x="815" 
d="M31 595q0 -75 51 -125q51 -51 125 -51t125 51q51 50 51 125q0 74 -51 126q-51 51 -125 51q-75 0 -125 -51q-51 -51 -51 -125v-1zM106 595q0 44 29 74q28 29 72 29t72 -29q29 -29 29 -73q0 -45 -29 -74t-72 -29q-44 0 -72 29q-29 30 -29 72v1zM431 163q0 -76 51 -127
q52 -50 126 -50q73 0 125 51q51 51 51 126q0 74 -51 126q-51 51 -125 51q-75 0 -126 -51t-51 -125v-1zM506 163q0 44 29 73t73 29q43 0 72 -29t29 -73q0 -45 -29 -74q-29 -30 -72 -30q-44 0 -73 30t-29 73v1zM637 758h-80q-96 -190 -383 -758h80q96 189 383 758z" />
    <glyph glyph-name="ampersand" unicode="&#x26;" horiz-adv-x="759" 
d="M592 460q-22 -44 -89 -175q-33 33 -131 133q43 23 89 62t46 115q0 72 -53 125q-53 52 -132 52q-80 0 -134 -53t-54 -127q2 -49 25 -89q24 -39 62 -80q-18 -10 -38 -22t-39 -27q-36 -29 -64 -71q-27 -42 -27 -101q0 -86 66 -151q65 -65 177 -65q91 0 141 40q49 41 80 100
q45 -46 135 -139q19 18 74 71q-38 39 -152 155q33 62 131 247h-113zM323 682q39 0 62 -26q24 -26 24 -60q0 -43 -27 -67q-26 -25 -73 -51q-22 24 -46 52q-23 29 -23 68q0 33 22 59q23 25 60 25h1zM445 196q-25 -50 -57 -79q-31 -29 -88 -29t-93 36q-37 36 -37 87q0 41 27 78
q28 36 91 67q52 -53 157 -160z" />
    <glyph glyph-name="quotesingle" unicode="'" horiz-adv-x="239" 
d="M161 455v303h-83v-39v-264h83z" />
    <glyph glyph-name="parenleft" unicode="(" horiz-adv-x="462" 
d="M423 772q-111 -45 -185 -128q-74 -82 -113 -180q-20 -53 -31 -107q-10 -54 -10 -107q0 -101 35 -200q35 -100 107 -181q38 -44 87 -81q50 -36 110 -62v120q-87 47 -155 154q-67 107 -67 249q0 51 9 97q10 47 27 88q31 77 82 133q50 56 104 85v120z" />
    <glyph glyph-name="parenright" unicode=")" horiz-adv-x="462" 
d="M39 -274q59 24 108 59q49 36 88 80q71 81 107 182t36 200q0 100 -35 200q-35 99 -107 181q-38 44 -87 81q-50 36 -110 63v-18v-104q87 -47 155 -153q68 -107 68 -249q0 -51 -10 -98q-9 -47 -26 -88q-32 -77 -82 -132q-51 -56 -105 -86v-118z" />
    <glyph glyph-name="asterisk" unicode="*" horiz-adv-x="642" 
d="M358 758h-74q5 -36 19 -143q-29 22 -117 86q-9 -16 -35 -64q32 -13 130 -53q-33 -14 -130 -56q9 -16 37 -66q29 22 114 89q-5 -36 -18 -143h74q-4 35 -19 142q29 -22 115 -88q9 16 38 66q-33 14 -131 55q33 13 129 54q-8 16 -34 64q-29 -21 -116 -87q5 36 18 144z" />
    <glyph glyph-name="plus" unicode="+" horiz-adv-x="614" 
d="M358 516h-102v-207h-206v-103h206v-206h102v206h206v103h-206v207z" />
    <glyph glyph-name="comma" unicode="," horiz-adv-x="304" 
d="M209 134h-113l-64 -212h92q21 53 85 212z" />
    <glyph glyph-name="hyphen" unicode="-" horiz-adv-x="281" 
d="M0 343v-32v-73h281v105h-281z" />
    <glyph glyph-name="period" unicode="." horiz-adv-x="304" 
d="M206 14q-9 -10 -23 -15q-14 -6 -28 -6t-28 6q-14 5 -24 15t-16 24t-6 28t6 28t16 24t24 16t28 6t28 -6t23 -16q10 -10 16 -24t6 -28t-6 -28t-16 -24z" />
    <glyph glyph-name="slash" unicode="/" horiz-adv-x="572" 
d="M72 -102h119q78 215 311 860h-120q-78 -215 -310 -860z" />
    <glyph glyph-name="zero" unicode="0" 
d="M37 253q0 -98 45 -156t102 -84q31 -15 63 -21q31 -6 57 -6q47 0 108 22q61 23 104 79q23 30 37 71t14 95v252q0 49 -13 89q-12 40 -34 70q-40 56 -101 82t-117 26q-22 0 -52 -5q-29 -6 -60 -19q-58 -24 -105 -82q-48 -58 -48 -165v-63v-185zM157 505q0 66 37 113
q38 48 106 48q57 0 88 -27q32 -27 45 -61q7 -18 10 -37q3 -18 3 -33v-258q0 -65 -41 -111q-41 -47 -103 -47q-68 0 -106 47q-39 46 -39 111v64v191z" />
    <glyph glyph-name="one" unicode="1" 
d="M253 0h121v758h-264v-103h143v-655z" />
    <glyph glyph-name="two" unicode="2" 
d="M55 0h500v102h-335q54 53 107 105l106 104q62 61 90 112q27 52 29 115q1 96 -64 165q-64 69 -177 69q-40 0 -97 -17q-58 -18 -98 -73q-32 -39 -45 -85q-13 -45 -15 -95h116q2 72 35 118t94 46q56 0 94 -36q37 -36 37 -101q-2 -67 -45 -115q-43 -49 -97 -99
q-59 -54 -117 -109q-59 -55 -118 -111v-95z" />
    <glyph glyph-name="three" unicode="3" 
d="M193 564q2 34 24 68t76 34q44 0 69 -31q25 -30 25 -73q0 -41 -34 -74q-35 -33 -94 -33h-36v-91h57q63 0 108 -38q44 -38 44 -97q0 -56 -35 -97q-36 -40 -100 -40q-59 1 -97 38q-38 38 -41 93h-122q1 -31 11 -69q10 -37 34 -71q35 -48 94 -73q59 -24 118 -24q109 0 184 67
q75 68 75 170q0 19 -8 56q-7 37 -38 73q-17 20 -42 37t-61 30q37 19 70 57t33 103q0 83 -59 138q-60 55 -151 55q-46 0 -96 -19t-85 -63q-18 -23 -29 -54q-12 -32 -13 -72h119z" />
    <glyph glyph-name="four" unicode="4" 
d="M372 0h116v139h81v97h-81v522h-118q-90 -132 -360 -529v-11v-79h362v-139zM134 236q61 93 245 375v-375h-245z" />
    <glyph glyph-name="five" unicode="5" 
d="M130 758l-68 -400q25 -6 99 -24q32 48 69 62t64 14q67 0 112 -48q45 -47 45 -111q0 -65 -47 -112t-110 -47q-49 0 -93 32q-43 33 -56 88h-120q15 -105 93 -166q78 -60 179 -60q45 0 84 12q38 12 69 32q58 39 89 100t31 124q0 31 -8 63q-7 31 -23 61q-29 55 -85 93
q-55 39 -136 39q-52 0 -81 -14t-48 -26q12 62 34 185h291v103h-384z" />
    <glyph glyph-name="six" unicode="6" 
d="M301 758q-52 -76 -207 -302q-26 -39 -47 -87q-20 -48 -20 -110q0 -42 14 -91t48 -88q35 -44 91 -69q55 -25 124 -25q75 0 136 34q62 35 98 94q19 31 30 69q11 37 11 78q0 43 -11 79q-11 37 -29 66q-35 54 -90 83t-113 29q-24 0 -46 -7q-22 -6 -32 -12q9 13 18 25
q8 12 17 24q49 70 146 210h-138zM145 250q0 80 51 121q52 41 106 41q62 0 109 -44t47 -117q0 -66 -45 -113q-45 -46 -113 -46q-65 0 -110 45q-45 44 -45 112v1z" />
    <glyph glyph-name="seven" unicode="7" 
d="M77 758v-103h327q-76 -163 -305 -655h132q75 166 298 664v94h-452z" />
    <glyph glyph-name="eight" unicode="8" 
d="M78 575q0 -59 30 -97q29 -38 61 -56q-61 -25 -91 -77q-31 -53 -32 -117q1 -103 73 -173q72 -69 183 -69q110 0 182 69q72 70 73 173q0 65 -31 117q-31 53 -91 77q32 18 61 56t29 97q0 77 -58 137q-59 60 -165 60q-107 0 -165 -61q-59 -61 -59 -134v-2zM196 566
q0 46 31 76q31 31 75 31t75 -31q32 -30 32 -76q0 -45 -32 -75q-31 -30 -75 -30t-75 30t-31 74v1zM167 229q0 55 38 96q37 42 97 42q59 0 97 -42q38 -41 38 -96q0 -53 -38 -95t-97 -42t-97 42q-38 41 -38 94v1z" />
    <glyph glyph-name="nine" unicode="9" 
d="M304 0q52 76 207 302q26 39 46 87q21 48 21 110q0 42 -14 91t-48 88q-35 44 -91 69t-124 25q-40 0 -77 -10q-37 -11 -68 -30q-59 -36 -94 -98q-35 -61 -35 -137q0 -43 10 -80q11 -36 29 -65q35 -55 89 -83q55 -29 114 -29q24 0 46 6q22 7 32 13q-8 -12 -17 -25l-18 -24
q-48 -70 -146 -210h138zM459 508q0 -80 -51 -120q-51 -41 -107 -41q-61 0 -107 44q-47 44 -47 116q0 67 45 113t112 46q66 0 110 -45q45 -44 45 -112v-1z" />
    <glyph glyph-name="colon" unicode=":" horiz-adv-x="304" 
d="M207 438q-10 -10 -24 -16t-28 -6q-15 0 -29 6t-24 16t-15 24q-6 14 -6 28t6 28q5 14 15 24t24 16t29 6q14 0 28 -6t24 -16t16 -24q5 -14 5 -28t-5 -28q-6 -14 -16 -24zM207 15q-10 -10 -24 -16t-28 -6q-15 0 -29 6t-24 16t-15 24q-6 14 -6 28t6 28q5 15 15 24
q10 10 24 16t29 6q14 0 28 -6t24 -16q10 -9 16 -24q5 -14 5 -28t-5 -28q-6 -14 -16 -24z" />
    <glyph glyph-name="semicolon" unicode=";" horiz-adv-x="304" 
d="M210 134h-113q-16 -53 -65 -212h87q23 53 91 212zM204 439q-10 -10 -24 -15q-14 -6 -27 -6q-14 0 -28 6q-14 5 -23 15q-10 10 -16 24q-5 13 -5 27t5 28q6 13 16 23q9 10 23 15q14 6 28 6q13 0 27 -6q14 -5 24 -15q9 -10 15 -23q6 -14 6 -28t-6 -27q-6 -14 -15 -24z" />
    <glyph glyph-name="less" unicode="&#x3c;" horiz-adv-x="614" 
d="M49 309v-25v-77q129 -57 516 -229v113q-101 42 -406 167q101 42 406 167v113q-129 -57 -516 -229z" />
    <glyph glyph-name="equal" unicode="=" horiz-adv-x="614" 
d="M50 428v-102h514v102h-514zM50 190v-103h514v103h-514z" />
    <glyph glyph-name="greater" unicode="&#x3e;" horiz-adv-x="614" 
d="M49 91v-28v-85q129 58 516 229v102q-129 57 -516 229v-113q102 -42 407 -166q-102 -42 -407 -168z" />
    <glyph glyph-name="question" unicode="?" horiz-adv-x="581" 
d="M330 209q0 28 12 62t66 85q42 40 80 86q37 46 37 113q0 85 -64 151t-168 66q-90 0 -165 -58t-82 -166v-11v-4v-8h117v13q1 6 2 13q7 51 41 80t82 29q54 0 84 -33q31 -34 31 -82q0 -40 -23 -70t-63 -69q-57 -56 -78 -100q-20 -45 -22 -97h113zM325 15q-10 -10 -24 -16
t-28 -6t-28 6t-24 16q-9 10 -15 23q-6 14 -6 28t6 28t15 24q10 10 24 15q14 6 28 6t28 -6q14 -5 24 -15q9 -10 15 -24t6 -28t-6 -28q-6 -13 -15 -23z" />
    <glyph glyph-name="at" unicode="@" horiz-adv-x="788" 
d="M673 150q-51 -53 -122 -78q-72 -24 -138 -24q-110 0 -181 50t-106 120q-19 37 -29 77q-9 40 -9 78q0 91 42 166q42 76 112 120q38 24 82 37q45 14 94 14q39 0 77 -9q37 -9 70 -26q62 -32 102 -91t40 -141q0 -64 -24 -112q-23 -47 -54 -74q-16 -14 -33 -21q-16 -8 -31 -8
q-13 0 -27 8q-14 7 -13 32q0 11 5 28q4 16 5 22q21 83 65 248h-72q-4 -14 -16 -57q-11 31 -35 51q-25 21 -70 21q-31 0 -59 -12q-28 -11 -52 -31q-44 -37 -71 -95q-26 -58 -26 -117q0 -82 44 -121q45 -39 93 -39q45 0 75 20q29 20 51 53q7 -43 35 -59q29 -16 57 -16
q24 0 50 10q26 9 52 28q47 34 81 96q35 62 35 146q0 96 -47 169t-124 114q-41 23 -88 34q-47 12 -98 12q-62 0 -117 -16q-55 -17 -100 -46q-84 -55 -132 -145q-49 -90 -49 -192q0 -49 13 -98q12 -49 36 -94q46 -83 133 -140t215 -57q31 0 80 9t100 33q28 13 54 30t48 40
q-8 18 -23 53zM272 328q0 75 45 132q45 56 98 56q31 0 54 -24t24 -62q0 -23 -11 -53q-10 -30 -15 -47q-11 -32 -38 -66t-77 -34q-25 0 -52 20q-28 21 -28 77v1z" />
    <glyph glyph-name="A" unicode="A" horiz-adv-x="743" 
d="M209 179h323q18 -45 72 -179h131q-76 189 -306 758h-110q-77 -190 -311 -758h131q18 45 70 179zM500 276h-258q32 86 128 341q32 -85 130 -341z" />
    <glyph glyph-name="B" unicode="B" horiz-adv-x="613" 
d="M73 0h222q70 0 111 8q40 8 80 36q44 26 68 72q24 45 25 101q0 9 -2 24q-1 15 -6 34q-9 34 -38 71q-29 38 -93 58q41 22 69 61q28 38 28 98q0 46 -18 87t-59 67q-28 20 -68 30q-39 11 -93 11h-226v-190v-568zM194 651h96q28 0 47 -3t33 -10q20 -9 35 -32q16 -23 16 -57
q0 -30 -12 -54q-11 -24 -39 -39q-16 -8 -36 -10q-20 -3 -41 -3h-99v208zM194 342h111q28 0 48 -2q21 -2 43 -11q29 -13 48 -39q19 -27 19 -66q-1 -43 -20 -68t-47 -37q-19 -8 -41 -10q-21 -3 -40 -3h-121v236z" />
    <glyph glyph-name="C" unicode="C" horiz-adv-x="830" 
d="M669 230q-5 -7 -14 -21q-9 -13 -24 -30q-28 -30 -76 -58q-48 -29 -120 -29q-42 0 -79 12q-38 11 -69 32q-58 38 -92 103q-34 64 -34 141q0 40 10 78t28 71q35 60 96 99q61 38 139 38q35 -1 65 -9q29 -7 54 -20q46 -24 75 -57t41 -57h128q-10 28 -27 58q-18 30 -43 58
q-47 54 -120 93q-73 40 -172 40q-61 0 -116 -16q-54 -16 -99 -45q-84 -53 -132 -141q-48 -89 -48 -190q0 -57 15 -109t42 -98q51 -84 140 -136q88 -51 199 -51q129 0 227 70q97 71 133 174h-127z" />
    <glyph glyph-name="D" unicode="D" horiz-adv-x="741" 
d="M73 0h242q200 0 293 107t93 273q0 74 -20 139q-19 64 -63 116q-62 81 -149 102q-86 21 -162 21h-234v-190v-568zM194 651h129q73 0 120 -22q47 -23 77 -58q32 -38 47 -88q15 -51 15 -105q0 -118 -64 -195q-63 -77 -196 -77h-128v545z" />
    <glyph glyph-name="E" unicode="E" horiz-adv-x="550" 
d="M73 0h424v106h-303v225h299v105h-299v215h303v107h-424v-190v-568z" />
    <glyph glyph-name="F" unicode="F" horiz-adv-x="505" 
d="M73 0h121v325h270v105h-270v221h274v107h-395v-190v-568z" />
    <glyph glyph-name="G" unicode="G" horiz-adv-x="874" 
d="M802 543q-41 98 -141 164q-101 65 -223 65q-58 0 -111 -15q-53 -14 -99 -41q-85 -50 -137 -138q-52 -87 -52 -197q0 -58 15 -112q16 -53 44 -98q52 -84 141 -135q89 -50 198 -50q108 0 213 56q105 57 157 170q19 42 26 88q8 46 8 82h-467v-98h326q-8 -40 -31 -74
q-23 -35 -58 -62q-33 -26 -78 -41t-97 -15q-69 0 -132 33t-101 94q-21 33 -33 73q-11 41 -11 89q0 46 11 86q12 40 33 72q38 61 101 94q62 33 132 33q47 0 87 -14t73 -38q20 -14 37 -32q18 -19 33 -39h136z" />
    <glyph glyph-name="H" unicode="H" horiz-adv-x="715" 
d="M194 0v332h326v-332h121v758h-121v-320h-326v320h-121v-190v-568h121z" />
    <glyph glyph-name="I" unicode="I" horiz-adv-x="267" 
d="M73 0h121v758h-121v-190v-568z" />
    <glyph glyph-name="J" unicode="J" horiz-adv-x="535" 
d="M461 758h-120v-521q0 -23 -2 -44t-9 -41q-9 -23 -31 -41q-23 -18 -61 -19q-28 0 -58 21q-30 20 -43 68q-1 6 -1 10q-1 4 -1 9h-129q1 -12 2 -23t3 -21q8 -40 26 -68q17 -28 39 -47q42 -35 88 -45t67 -10q35 0 71 10t68 32q22 14 40 36q19 21 29 44q13 29 18 66q4 38 4 89
v495z" />
    <glyph glyph-name="K" unicode="K" horiz-adv-x="645" 
d="M91 0h121v349q72 -87 287 -349h148l-324 380q73 94 294 378h-128q-69 -90 -277 -359v359h-121v-95v-663z" />
    <glyph glyph-name="L" unicode="L" horiz-adv-x="469" 
d="M76 0h388v106h-267v652h-121v-190v-568z" />
    <glyph glyph-name="M" unicode="M" horiz-adv-x="945" 
d="M185 0q0 160 -3 639q63 -160 251 -639h79q63 160 251 639q-1 -160 -3 -639h111v758h-164q-59 -147 -233 -587q-59 147 -235 587h-166v-190v-568h112z" />
    <glyph glyph-name="N" unicode="N" horiz-adv-x="768" 
d="M186 758h-113v-190v-568h116q0 144 -2 578q99 -145 397 -578h110v758h-116q0 -144 2 -577q-99 144 -394 577z" />
    <glyph glyph-name="O" unicode="O" horiz-adv-x="871" 
d="M39 374q0 -102 49 -189q49 -88 134 -140q45 -28 99 -44q53 -15 113 -15t114 15t99 43q85 52 135 140q51 89 51 195q0 57 -16 110q-15 52 -42 97q-52 84 -141 135t-199 51q-56 0 -108 -14q-53 -14 -98 -41q-85 -49 -137 -138q-53 -88 -53 -204v-1zM159 380q0 40 10 78
q10 37 29 70q34 61 96 99q62 39 142 39q81 0 142 -40q62 -40 96 -101q18 -33 28 -71q10 -37 10 -76q0 -72 -33 -137q-33 -64 -91 -104q-32 -21 -70 -33t-81 -12q-78 0 -141 38q-62 37 -97 98q-20 33 -30 71t-10 80v1z" />
    <glyph glyph-name="P" unicode="P" horiz-adv-x="594" 
d="M69 758v-190v-568h120v278h107q78 0 123 13t84 43q35 28 57 80t22 106q0 55 -22 105q-22 51 -62 82q-34 26 -80 39q-45 12 -133 12h-216zM189 651h101q37 0 66 -4q29 -5 55 -20q23 -14 39 -42t16 -67q0 -38 -16 -67q-15 -28 -38 -41q-25 -16 -53 -21q-29 -5 -65 -5h-105
v267z" />
    <glyph glyph-name="Q" unicode="Q" horiz-adv-x="894" 
d="M889 86q-49 4 -80 13q-32 9 -61 29q22 26 57 86q36 60 36 168q0 102 -50 189q-49 88 -134 141q-46 28 -100 44q-55 16 -116 16q-113 0 -201 -53q-89 -53 -139 -137q-27 -46 -41 -98q-15 -52 -15 -107q0 -53 14 -103q14 -51 40 -96q50 -84 138 -138q89 -54 207 -54
q59 0 116 17q57 18 107 49q24 -18 61 -37t103 -24q15 -2 29 -3t29 -1v99zM442 666q40 0 77 -11q37 -10 69 -29q60 -36 96 -99q37 -63 37 -145q0 -52 -17 -98q-18 -45 -51 -79q-60 50 -86 73q-27 22 -59 41q-45 29 -92 41q-47 13 -98 13q-47 0 -82 -9t-58 -17q-3 13 -5 31
q-1 10 -1 22q0 9 1 21q12 109 88 177t180 68h1zM443 92q-33 0 -79 12t-89 44q-23 18 -44 43q-20 25 -35 58q20 8 46 15q26 6 64 6q47 0 93 -14q46 -15 89 -46q9 -7 42 -35q33 -27 50 -45q-20 -14 -56 -26t-80 -12h-1z" />
    <glyph glyph-name="R" unicode="R" horiz-adv-x="624" 
d="M69 0h120v651h104q41 0 72 -4q32 -5 57 -20q30 -20 47 -55t17 -73q0 -37 -13 -69t-39 -55q-27 -23 -69 -28q-43 -5 -82 -5h-27q52 -85 208 -342h128q-45 70 -178 282q43 7 80 25q37 17 66 58q21 29 32 67q11 37 11 77q0 64 -27 119q-26 55 -73 86q-30 20 -81 32
q-50 12 -139 12h-214v-190v-568z" />
    <glyph glyph-name="S" unicode="S" horiz-adv-x="561" 
d="M35 224q1 -110 69 -174q67 -64 180 -64q121 0 183 68q61 69 61 161t-55 137q-56 44 -127 74q-91 34 -135 58q-43 24 -43 79q0 49 34 78q35 29 81 29q65 0 86 -38t27 -69h119q-2 41 -14 73t-31 55q-35 44 -85 63q-51 18 -98 18q-31 0 -62 -7t-58 -21q-52 -25 -86 -73
q-33 -48 -33 -117q0 -37 11 -66t29 -51q33 -40 78 -60q45 -19 74 -29q73 -27 121 -51q48 -25 48 -88q0 -51 -38 -86t-88 -35q-11 0 -25 3q-13 2 -27 8q-27 12 -50 41q-22 29 -26 84h-120z" />
    <glyph glyph-name="T" unicode="T" horiz-adv-x="485" 
d="M182 0h121v651h174v107h-469v-27v-80h174v-651z" />
    <glyph glyph-name="U" unicode="U" horiz-adv-x="672" 
d="M72 758v-473v-8q0 -65 13 -119q14 -57 70 -107q38 -37 90 -51t93 -14q56 0 101 18t79 48q50 42 66 100q16 55 16 126v7v473h-120v-473q0 -37 -3 -70q-4 -32 -25 -64q-16 -27 -46 -43t-69 -16t-70 17q-30 17 -47 44q-21 33 -24 64q-3 32 -3 68v473h-121z" />
    <glyph glyph-name="V" unicode="V" horiz-adv-x="714" 
d="M296 0h120q71 189 285 758h-124q-56 -153 -221 -611q-54 153 -219 611h-125q71 -190 284 -758z" />
    <glyph glyph-name="W" unicode="W" horiz-adv-x="962" 
d="M219 0h115q36 144 146 574q37 -143 147 -574h111q53 189 209 758h-123q-37 -149 -147 -594q-38 148 -151 594h-91q-37 -148 -148 -593q-38 148 -150 593h-123q52 -190 205 -758z" />
    <glyph glyph-name="X" unicode="X" horiz-adv-x="684" 
d="M10 0h134q49 77 194 308q50 -77 199 -308h137q-65 98 -261 393q59 91 238 365h-136q-43 -69 -173 -274q-44 69 -174 274h-137q60 -91 241 -363q-65 -99 -262 -395z" />
    <glyph glyph-name="Y" unicode="Y" horiz-adv-x="620" 
d="M250 0h121v269q59 122 237 489h-131q-42 -94 -167 -375q-41 94 -167 375h-131q60 -122 238 -489v-269z" />
    <glyph glyph-name="Z" unicode="Z" horiz-adv-x="511" 
d="M489 664v94h-477v-14v-93h341q-83 -143 -335 -573v-78h481v106h-334q81 140 324 558z" />
    <glyph glyph-name="bracketleft" unicode="[" horiz-adv-x="462" 
d="M389 -116h-168v785h168v89h-271v-121v-843h271v90z" />
    <glyph glyph-name="backslash" unicode="\" horiz-adv-x="572" 
d="M382 -102h120l-312 860h-118q77 -215 310 -860z" />
    <glyph glyph-name="bracketright" unicode="]" horiz-adv-x="462" 
d="M73 -206h272v964h-272v-89h168v-785h-168v-90z" />
    <glyph glyph-name="asciicircum" unicode="^" horiz-adv-x="614" 
d="M76 384h115q29 70 115 279q29 -70 116 -279h117q-45 93 -178 374h-108q-44 -94 -177 -374z" />
    <glyph glyph-name="underscore" unicode="_" horiz-adv-x="512" 
d="M512 -128v51h-128h-384v-15v-36h512z" />
    <glyph glyph-name="grave" unicode="`" horiz-adv-x="568" 
d="M164 819q-9 -19 -35 -77q62 -31 249 -125q8 17 32 66q-62 34 -246 136z" />
    <glyph glyph-name="a" unicode="a" horiz-adv-x="708" 
d="M637 557h-107v-98q-19 40 -71 77t-135 37q-43 0 -81 -11q-39 -11 -72 -31q-60 -38 -97 -104q-36 -66 -36 -148q0 -41 9 -80q10 -39 29 -73q34 -63 97 -102q63 -40 151 -40q66 0 121 28q56 29 85 85v-97h107v557zM144 278q0 78 53 137q52 59 140 59q67 0 112 -33
q46 -33 66 -82q9 -19 13 -40q4 -17 4 -35q0 -4 -1 -8q0 -21 -5 -42t-14 -40q-21 -48 -65 -80q-44 -31 -108 -31q-35 0 -64 9q-28 10 -51 26q-40 29 -60 73q-19 45 -20 85v2z" />
    <glyph glyph-name="b" unicode="b" horiz-adv-x="700" 
d="M70 0h102v96q27 -50 80 -81t125 -31q120 0 203 81q84 81 84 216q0 48 -12 90q-12 41 -34 74q-39 62 -103 95t-134 33q-54 0 -110 -25q-56 -26 -95 -80v88v202h-106v-190v-568zM557 279q-1 -73 -51 -134q-49 -62 -145 -62q-85 0 -137 58q-52 59 -52 139q0 79 53 136
q54 58 140 58q82 0 137 -56q55 -57 55 -138v-1z" />
    <glyph glyph-name="c" unicode="c" horiz-adv-x="652" 
d="M509 196q-17 -42 -61 -77q-43 -35 -113 -36q-80 0 -135 55q-56 55 -56 141q0 42 15 79t40 62q29 27 61 41q33 14 75 13q57 0 105 -30q47 -31 69 -87h109q-26 101 -107 159q-80 57 -180 57q-44 0 -84 -11q-39 -11 -73 -32q-62 -39 -99 -105t-37 -146q0 -41 10 -80
q11 -38 30 -72q37 -63 103 -103t155 -40q104 0 181 60q76 61 101 152h-109z" />
    <glyph glyph-name="d" unicode="d" horiz-adv-x="706" 
d="M634 758h-107v-194v-98q-17 33 -68 70q-52 37 -137 37q-78 0 -142 -36q-63 -36 -100 -98q-20 -34 -31 -74t-11 -85q0 -79 33 -145q34 -67 94 -106q33 -22 73 -34q40 -11 86 -11q86 0 135 35t72 78v-97h103v758zM144 280q0 78 54 136t142 58q41 0 76 -14q35 -15 61 -41
t41 -61q16 -35 16 -76v-8q0 -37 -13 -70q-15 -36 -42 -63q-26 -27 -62 -42q-36 -16 -77 -16q-92 0 -144 59q-51 60 -52 137v1z" />
    <glyph glyph-name="e" unicode="e" horiz-adv-x="649" 
d="M614 245q2 17 2 34q0 51 -16 99q-20 64 -70 114q-40 39 -92 60q-53 21 -113 21q-45 0 -84 -11q-40 -12 -74 -34q-63 -39 -99 -106q-37 -66 -37 -144q0 -39 10 -77t29 -72q36 -63 101 -104q66 -41 155 -41q42 0 82 11q41 12 76 36q36 23 64 57q29 35 49 81h-111
q-23 -44 -63 -69q-41 -25 -97 -25q-63 0 -124 43q-60 42 -64 127h476zM140 328q4 57 54 105q49 49 131 49h4q76 0 125 -49q51 -50 55 -105h-369z" />
    <glyph glyph-name="f" unicode="f" horiz-adv-x="298" 
d="M81 0h106v474h103v83h-103v33t6 42t15 28q16 21 40 24q24 4 42 4v84q-21 0 -45 -2q-25 -2 -49 -8q-45 -12 -80 -49q-35 -36 -35 -118v-38h-76v-15v-68h76v-474z" />
    <glyph glyph-name="g" unicode="g" horiz-adv-x="701" 
d="M633 557h-107v-94q-23 46 -77 78q-53 32 -123 32q-79 0 -144 -36q-64 -37 -102 -100q-20 -34 -31 -74q-11 -41 -11 -87q0 -43 11 -83q10 -39 30 -73q37 -62 101 -99t146 -37q75 0 125 34q51 33 75 80v-57q0 -94 -59 -144q-60 -50 -130 -50q-19 0 -45 7q-26 6 -51 23
q-21 13 -37 30q-16 16 -25 35h-123q20 -70 89 -128q70 -58 188 -58q72 0 134 29q62 28 100 73q31 35 48 84q18 50 18 123v492zM144 280q0 86 57 139q57 54 136 54q51 0 87 -18t59 -47t34 -64q11 -36 11 -69q0 -40 -15 -75q-14 -35 -39 -61t-60 -41t-77 -15q-88 0 -141 59
q-52 58 -52 137v1z" />
    <glyph glyph-name="h" unicode="h" horiz-adv-x="651" 
d="M70 0h106v314q0 29 8 57q8 29 26 51q17 22 46 37q29 14 72 14q41 0 70 -13q28 -13 46 -36q17 -23 25 -55q7 -32 7 -70v-299h108v304q0 58 -11 107t-37 85q-27 36 -70 57q-43 20 -109 20q-54 1 -105 -22t-76 -72v87v192h-106v-190v-568z" />
    <glyph glyph-name="i" unicode="i" horiz-adv-x="246" 
d="M70 0h106v557h-106v-140v-417zM166 659q-8 -9 -19 -13q-12 -5 -23 -5q-12 0 -23 5q-12 4 -20 13q-8 8 -13 19q-5 12 -5 23q0 12 5 24q5 11 13 19t20 13q11 5 23 5q11 0 23 -5q11 -5 19 -13q9 -8 13 -19q5 -12 5 -24q0 -11 -5 -23q-4 -11 -13 -19z" />
    <glyph glyph-name="j" unicode="j" horiz-adv-x="282" 
d="M200 557h-107v-551q0 -51 -12 -89q-11 -38 -67 -44q-4 -1 -8 -1h-9v-18v-67h15q8 0 15 1q41 3 70 13q30 11 49 28q36 31 45 79t9 101v548zM189 658q-8 -9 -20 -13q-11 -5 -23 -5t-23 5q-12 4 -20 13q-8 8 -13 19q-5 12 -5 24q0 11 5 23q5 11 13 20q8 8 20 13q11 5 23 5
t23 -5q12 -5 20 -13q8 -9 13 -20q5 -12 5 -23q0 -12 -5 -24q-5 -11 -13 -19z" />
    <glyph glyph-name="k" unicode="k" horiz-adv-x="548" 
d="M73 0h107v287q58 -72 231 -287h124q-64 78 -255 312q62 62 247 245h-129q-54 -55 -218 -220v421h-107v-190v-568z" />
    <glyph glyph-name="l" unicode="l" horiz-adv-x="246" 
d="M70 0h106v758h-106v-190v-568z" />
    <glyph glyph-name="m" unicode="m" horiz-adv-x="983" 
d="M70 0h106v305q0 34 7 63t23 51q14 23 41 39t64 15q39 -1 65 -16q25 -15 41 -39q14 -23 18 -50q5 -26 4 -61v-307h108v307q0 36 4 61q5 26 21 52q16 25 44 39q29 14 64 14q38 0 61 -12q24 -12 38 -34q19 -24 25 -57q6 -32 6 -67v-303h106v307q0 80 -12 126t-49 84
q-31 32 -71 44t-78 12q-46 0 -83 -15q-38 -16 -65 -43q-15 -15 -24 -29t-16 -26q-4 7 -15 25q-10 18 -21 29q-29 33 -67 46t-76 13q-61 0 -106 -30q-45 -29 -63 -65v79h-100v-140v-417z" />
    <glyph glyph-name="n" unicode="n" horiz-adv-x="651" 
d="M70 0h106v310q0 72 37 117t116 46q81 1 114 -47q33 -49 33 -124v-302h108v327q0 30 -5 61t-16 59q-21 53 -69 89q-49 36 -136 37h-3q-72 0 -118 -29q-47 -30 -67 -73v86h-100v-140v-417z" />
    <glyph glyph-name="o" unicode="o" horiz-adv-x="671" 
d="M38 279q0 -73 33 -140q34 -66 97 -107q34 -22 76 -35q42 -12 91 -12t91 12q42 13 76 35q63 41 96 107q34 67 34 140q0 72 -34 139q-33 67 -96 108q-34 22 -76 35q-42 12 -91 12t-91 -12q-42 -13 -76 -35q-63 -41 -97 -108q-33 -66 -33 -138v-1zM144 279q0 83 56 139
q55 55 135 55t135 -55q55 -56 55 -139q0 -84 -55 -140q-55 -55 -135 -55t-135 55q-56 56 -56 139v1z" />
    <glyph glyph-name="p" unicode="p" horiz-adv-x="705" 
d="M70 -203h106v203v92q19 -34 70 -71q52 -37 139 -37q44 0 82 11q39 12 71 33q60 39 94 105t34 142q0 68 -29 136t-89 112q-32 23 -73 37q-41 13 -91 13q-74 0 -128 -31q-54 -32 -85 -82v97h-101v-190v-570zM558 279q0 -82 -54 -139q-55 -57 -139 -57q-41 0 -77 15t-62 41
t-40 62q-15 35 -15 77q0 41 14 77q15 36 40 62q26 27 62 42q35 15 77 15q34 0 62 -9t50 -24q41 -28 62 -73q20 -44 20 -88v-1z" />
    <glyph glyph-name="q" unicode="q" horiz-adv-x="703" 
d="M634 557h-103v-95q-22 39 -72 75q-51 36 -135 36q-125 0 -205 -85q-81 -85 -81 -216q0 -41 10 -79t29 -71q35 -62 97 -100t143 -38q90 0 141 38t69 72v-94v-203h107v760zM144 276q1 73 50 135q49 63 145 63q41 0 76 -15q36 -15 63 -42q26 -27 41 -63q14 -32 14 -69
q0 -4 -1 -7q0 -41 -15 -77t-41 -62t-61 -41t-76 -15q-88 0 -141 59q-54 58 -54 133v1z" />
    <glyph glyph-name="r" unicode="r" horiz-adv-x="344" 
d="M70 0h106v301q0 83 39 124q38 42 114 42h7v106q-57 0 -100 -25q-42 -24 -66 -73v82h-100v-140v-417z" />
    <glyph glyph-name="s" unicode="s" horiz-adv-x="477" 
d="M421 412q-4 60 -33 95q-30 35 -68 50q-21 9 -43 13q-21 3 -41 3q-77 0 -132 -44q-56 -45 -56 -125q1 -62 41 -94q41 -32 99 -50q75 -24 108 -45q34 -20 35 -61q0 -36 -27 -60q-26 -23 -64 -23q-30 0 -63 19q-33 20 -36 71h-105q2 -62 34 -100q31 -39 74 -58
q22 -10 47 -15q24 -4 48 -4q83 0 141 50q57 49 57 127v5q-1 31 -9 54q-9 24 -23 41q-26 31 -67 46q-40 15 -82 27q-45 12 -72 30q-28 18 -29 51q-1 27 20 49q20 22 59 22q41 1 61 -20q20 -22 20 -54h106z" />
    <glyph glyph-name="t" unicode="t" horiz-adv-x="334" 
d="M110 0h106v474h108v83h-108v201h-106v-201h-101v-21v-62h101v-474z" />
    <glyph glyph-name="u" unicode="u" horiz-adv-x="652" 
d="M583 557h-107v-311q0 -72 -37 -117t-115 -46q-83 0 -116 48q-33 49 -33 124v302h-106v-36v-291q0 -56 17 -112q18 -56 65 -92q25 -19 61 -31q35 -11 82 -11h4q72 0 117 29q47 30 67 73v-86h101v557z" />
    <glyph glyph-name="v" unicode="v" horiz-adv-x="555" 
d="M544 557h-112q-39 -106 -154 -424q-39 106 -155 424h-112q54 -139 213 -557h107q53 139 213 557z" />
    <glyph glyph-name="w" unicode="w" horiz-adv-x="828" 
d="M195 0h101q29 98 117 390q30 -97 119 -390h102q46 139 185 557h-110q-33 -105 -129 -421q-31 97 -121 388h-89q-30 -97 -119 -388q-33 105 -131 421h-112q47 -139 187 -557z" />
    <glyph glyph-name="x" unicode="x" horiz-adv-x="543" 
d="M5 0h130q34 52 136 207q34 -52 136 -207h130q-51 72 -202 290q46 67 186 267h-127q-30 -48 -123 -191q-31 47 -124 191h-129q47 -67 188 -267q-50 -73 -201 -290z" />
    <glyph glyph-name="y" unicode="y" horiz-adv-x="545" 
d="M126 -203h114l304 760h-115q-39 -102 -156 -407q-38 101 -153 407h-115q53 -135 213 -541q-23 -54 -92 -219z" />
    <glyph glyph-name="z" unicode="z" horiz-adv-x="437" 
d="M14 0h409v83h-282q69 97 274 390v84h-392v-83h274q-71 -99 -283 -398v-10v-66z" />
    <glyph glyph-name="braceleft" unicode="{" horiz-adv-x="508" 
d="M431 764h-103q-55 0 -90 -32q-34 -32 -34 -102v-208q0 -62 -33 -92t-59 -34v-111q33 -11 62 -38q30 -26 30 -81v-204q0 -70 34 -103q35 -33 90 -33h103v84h-56q-41 0 -51 22q-11 22 -11 68v203q0 60 -33 94t-65 43q7 4 18 11q10 7 22 17q21 20 40 49q18 30 18 71v203
q0 44 11 67q10 23 51 23h56v83z" />
    <glyph glyph-name="bar" unicode="|" horiz-adv-x="568" 
d="M226 768v-1024h117v1024h-117z" />
    <glyph glyph-name="braceright" unicode="}" horiz-adv-x="508" 
d="M77 681h56t52 -23t10 -67v-203q0 -63 31 -98q32 -36 67 -48q-12 -6 -35 -23q-23 -16 -41 -44q-10 -15 -16 -33t-6 -39v-203q0 -46 -11 -68q-10 -22 -51 -22h-56v-84h103q55 0 89 33q35 33 35 103v204q0 55 30 81q29 27 62 38v111q-27 4 -59 34q-33 30 -33 92v208
q0 70 -35 102q-34 32 -89 32h-103v-83z" />
    <glyph glyph-name="asciitilde" unicode="~" horiz-adv-x="614" 
d="M512 346q-17 -24 -38 -46q-20 -21 -50 -21q-22 0 -50 11q-27 12 -57 25q-29 13 -59 24t-57 11h-6q-42 0 -71 -23q-32 -25 -51 -61q9 -32 28 -96q20 33 43 51q23 17 54 17q30 0 60 -12q29 -11 56 -25t54 -25q28 -10 56 -10q39 0 67 24q28 25 51 58q-10 33 -30 98z" />
    <glyph glyph-name="nonbreakingspace" unicode="&#xa0;" horiz-adv-x="302" 
 />
    <glyph glyph-name="exclamdown" unicode="&#xa1;" horiz-adv-x="307" 
d="M98 -201h111v544h-111v-136v-408zM204 440q-9 -9 -23 -15t-27 -6q-14 0 -28 6q-13 6 -23 15q-10 10 -15 24q-6 13 -6 27t6 27q5 14 15 24q10 9 23 15q14 6 28 6q13 0 27 -6t23 -15q10 -10 16 -24q5 -13 5 -27t-5 -27q-6 -14 -16 -24z" />
    <glyph glyph-name="cent" unicode="&#xa2;" 
d="M354 36v108q57 11 109 53q51 42 76 108h-116q-11 -17 -37 -39q-27 -21 -76 -21q-64 0 -101 42q-36 42 -36 96q0 55 39 95q38 40 98 40q27 0 60 -13t55 -52h113q-19 60 -67 106q-49 45 -120 62v101h-88v-102q-69 -15 -112 -54q-42 -38 -63 -85q-11 -25 -16 -51t-5 -50
q0 -40 17 -88q17 -49 58 -87q22 -20 52 -36t69 -25v-108h91z" />
    <glyph glyph-name="sterling" unicode="&#xa3;" 
d="M419 416h-213q-20 23 -31 49t-12 57q1 60 40 102q38 42 101 42q62 0 96 -37t44 -80h113q-13 106 -86 164q-74 59 -169 59q-42 0 -78 -10q-36 -11 -65 -29q-55 -35 -86 -90q-30 -56 -30 -118q0 -33 10 -61t24 -48h-67v-12v-75h124q31 -28 54 -61q23 -32 23 -75
q0 -50 -25 -71q-25 -20 -49 -26h-96v-96h325q70 0 110 17q39 17 70 48q22 24 38 60q15 35 15 73q0 23 -3 35q-2 13 -5 24h-106q3 -12 5 -22q3 -9 3 -22q0 -26 -11 -49t-31 -42q-18 -14 -40 -20t-59 -6h-65q24 31 33 58q10 27 10 47q0 46 -23 78q-23 31 -44 50h156v87z" />
    <glyph glyph-name="currency" unicode="&#xa4;" 
d="M529 70l56 56l-83 83q22 30 34 65q13 36 13 75q0 42 -13 78q-13 37 -35 68l83 83q-14 13 -56 55q-21 -21 -85 -83q-30 22 -66 34t-75 12t-75 -12q-37 -12 -68 -35q-29 28 -85 85q-14 -14 -57 -56q22 -21 86 -84q-23 -30 -36 -67t-13 -78q0 -39 13 -74q12 -35 35 -66
l-84 -84q14 -14 56 -54q20 20 82 81q31 -23 68 -36t78 -13q40 0 77 13t70 36q26 -28 80 -82zM156 350q0 61 43 104q44 43 103 43q60 0 103 -43q42 -43 42 -104q0 -60 -43 -103t-102 -43t-103 43q-43 43 -43 102v1z" />
    <glyph glyph-name="yen" unicode="&#xa5;" 
d="M571 483h-141q40 69 160 275h-126q-41 -74 -162 -295q-40 74 -159 295h-128q40 -69 159 -275h-140v-90h186q6 -10 22 -41v-53h-209v-90h209v-209h118v209h211v90h-211v54q6 10 21 40h190v90z" />
    <glyph glyph-name="brokenbar" unicode="&#xa6;" horiz-adv-x="568" 
d="M226 691v-358h117v358h-117zM226 179v-358h117v358h-117z" />
    <glyph glyph-name="section" unicode="&#xa7;" horiz-adv-x="642" 
d="M549 579q-2 80 -60 137q-58 56 -160 56q-82 0 -150 -47q-67 -46 -67 -142q0 -40 12 -67t27 -46q-66 -41 -83 -88q-18 -46 -18 -73q0 -31 7 -55q7 -23 18 -41q21 -33 49 -50q29 -17 48 -26q62 -28 185 -86q46 -21 71 -44q26 -24 28 -59q-2 -42 -34 -74q-32 -31 -96 -31
q-57 0 -101 31q-44 30 -48 107h-105q1 -48 14 -85q13 -36 35 -62q40 -50 98 -69q58 -20 109 -20q113 0 172 62q60 62 60 142q0 42 -15 76q-16 34 -45 61q37 28 64 67q28 38 28 94q0 28 -7 50q-8 22 -19 39q-22 32 -51 49q-30 18 -49 27l-171 78q-25 12 -52 31q-27 20 -28 61
q0 47 34 70q33 22 75 22q38 0 74 -17q36 -18 45 -78h106zM496 230q-1 -34 -22 -60t-43 -37q-72 33 -217 99q-25 13 -45 34q-21 22 -21 58q0 25 15 51t50 43q65 -31 196 -91q33 -15 59 -36q27 -20 28 -60v-1z" />
    <glyph glyph-name="dieresis" unicode="&#xa8;" horiz-adv-x="568" 
d="M231 781h-103v-138h103v138zM439 781h-103v-138h103v138z" />
    <glyph glyph-name="copyright" unicode="&#xa9;" horiz-adv-x="819" 
d="M412 771q-110 0 -198 -52q-88 -51 -139 -135q-27 -45 -42 -97t-15 -108q0 -58 16 -110q15 -53 43 -98q51 -84 139 -134t195 -50q56 0 108 15t97 43q83 51 134 139t51 195q0 56 -15 108t-42 97q-51 84 -138 135q-87 52 -193 52h-1zM411 716q92 0 166 -45q74 -44 116 -116
q23 -39 36 -83q12 -45 12 -93q0 -50 -13 -95t-36 -84q-44 -72 -118 -115t-163 -43q-91 0 -165 43q-75 44 -119 115q-23 39 -36 84t-13 95q0 48 12 93q13 44 36 83q42 72 116 116q75 45 168 45h1zM611 454q-5 62 -58 110t-137 48q-104 0 -162 -67q-58 -68 -58 -165
q0 -109 62 -170q63 -60 155 -60q82 0 140 49q58 50 64 138h-72q-9 -58 -36 -84q-26 -25 -52 -33q-14 -5 -25 -6t-16 -1q-61 0 -104 43t-43 124q0 69 38 119q37 50 109 50q35 0 73 -19q38 -20 51 -76h71z" />
    <glyph glyph-name="ordfeminine" unicode="&#xaa;" horiz-adv-x="419" 
d="M371 762h-69v-55q-17 31 -45 48q-29 17 -67 17q-66 0 -114 -46t-48 -121q0 -67 45 -117t116 -50q34 0 65 15q30 14 48 50v-56h69v315zM96 603q0 45 30 74q30 30 73 30q33 0 58 -17q25 -16 37 -42q4 -11 6 -21t2 -22q0 -11 -2 -23q-3 -12 -8 -23q-12 -23 -35 -39
q-24 -16 -57 -16q-53 0 -78 34q-26 33 -26 64v1z" />
    <glyph glyph-name="guillemotleft" unicode="&#xab;" horiz-adv-x="399" 
d="M35 287q27 -48 107 -191h82q-27 48 -107 191q27 48 107 192h-82q-27 -48 -107 -192zM188 287q27 -48 108 -191h82q-27 48 -108 191l108 192h-82z" />
    <glyph glyph-name="logicalnot" unicode="&#xac;" horiz-adv-x="614" 
d="M49 417v-26v-77h413v-189h103v292h-516z" />
    <glyph glyph-name="uni00ad" unicode="&#xad;" horiz-adv-x="281" 
d="M0 343v-32v-73h281v105h-281z" />
    <glyph glyph-name="registered" unicode="&#xae;" horiz-adv-x="819" 
d="M412 771q-110 0 -198 -52t-139 -136q-27 -44 -42 -96t-15 -108q0 -58 16 -110q15 -53 43 -98q51 -84 139 -134t195 -50q56 0 108 15t97 43q83 51 134 139t51 195q0 56 -15 108t-42 97q-51 84 -138 135q-87 52 -193 52h-1zM411 716q49 0 94 -14q45 -13 83 -38
q70 -45 112 -120q41 -76 41 -165q0 -50 -13 -95t-36 -84q-44 -72 -118 -115t-163 -43q-91 0 -165 43q-75 44 -119 116q-23 38 -36 83q-13 46 -13 95q0 48 12 93q13 44 36 83q43 72 117 116q74 45 167 45h1zM242 602v-444h72v185h89q71 0 86 -25q16 -25 19 -57q2 -34 5 -63
q2 -30 8 -40h71q-6 15 -8 32t-5 79q-4 44 -20 68q-17 23 -51 35q46 18 62 47q17 30 17 60q0 28 -9 47q-8 20 -22 34q-26 25 -63 34q-37 8 -65 8h-186zM417 549q13 0 36 -3t40 -18q9 -8 15 -21t6 -32q0 -21 -7 -35q-6 -15 -16 -23q-20 -17 -45 -20q-25 -2 -38 -3h-94v155h103
z" />
    <glyph glyph-name="macron" unicode="&#xaf;" horiz-adv-x="568" 
d="M467 753h-367v-85h367v85z" />
    <glyph glyph-name="degree" unicode="&#xb0;" horiz-adv-x="410" 
d="M351 582q0 61 -42 104q-43 42 -104 42q-62 0 -104 -42q-43 -43 -43 -104q0 -62 43 -104q42 -43 104 -43q61 0 104 43q42 42 42 103v1zM119 582q0 35 25 61t61 26t61 -26t25 -61q0 -36 -25 -62t-61 -26t-61 25q-25 26 -25 62v1z" />
    <glyph glyph-name="plusminus" unicode="&#xb1;" horiz-adv-x="614" 
d="M256 379h-207v-26v-78h207v-163h102v163h207v104h-207v168h-102v-168zM49 -46h516v103h-129h-387v-26v-77z" />
    <glyph glyph-name="twosuperior" unicode="&#xb2;" horiz-adv-x="391" 
d="M353 375h-194q31 31 63 61q31 31 64 62q33 32 49 62t16 70q0 65 -41 101t-114 36q-33 0 -68 -13t-61 -49q-18 -24 -24 -51q-6 -26 -6 -54h82q0 38 17 66q18 28 55 28t53 -21q15 -22 15 -51q0 -26 -15 -49q-14 -23 -46 -53q-40 -38 -81 -76q-40 -38 -81 -75v-66h317v72z
" />
    <glyph glyph-name="threesuperior" unicode="&#xb3;" horiz-adv-x="391" 
d="M28 442q0 -20 6 -43t21 -44q22 -30 60 -45q37 -16 76 -16q70 0 118 41q48 42 48 103q0 39 -23 71q-24 31 -63 46q28 15 43 41q16 26 16 53q0 49 -38 83q-38 35 -97 35q-25 0 -58 -10t-57 -38q-13 -14 -21 -35q-8 -20 -9 -47h84q2 21 15 39t44 18q27 0 40 -18
q14 -17 14 -38q0 -22 -20 -41q-21 -19 -56 -19h-27v-63h44q45 0 64 -25q18 -25 18 -48q0 -33 -20 -54q-21 -21 -57 -21q-33 0 -55 19q-22 20 -24 56h-86z" />
    <glyph glyph-name="acute" unicode="&#xb4;" horiz-adv-x="568" 
d="M159 687q8 -16 32 -65l248 124q-9 20 -36 78q-61 -34 -244 -137z" />
    <glyph glyph-name="mu" unicode="&#xb5;" horiz-adv-x="615" 
d="M66 -190h106v181v69q12 -20 43 -46q31 -25 92 -25q46 0 75 19t45 42q9 12 14 23l10 20v-93h102v557h-107v-270q0 -46 -8 -84q-9 -38 -27 -65q-17 -26 -43 -40q-26 -15 -62 -15q-28 0 -56 11q-29 12 -49 40q-19 28 -24 62q-5 35 -5 68v293h-106v-187v-560z" />
    <glyph glyph-name="paragraph" unicode="&#xb6;" horiz-adv-x="653" 
d="M225 -116h86v793h115v-793h86v794h56v80h-315q-49 0 -107 -14t-97 -56q-22 -23 -34 -56q-13 -32 -13 -77q0 -101 64 -149q65 -48 159 -48v-474z" />
    <glyph glyph-name="periodcentered" unicode="&#xb7;" horiz-adv-x="304" 
d="M204 208q-10 -10 -23 -16q-14 -5 -28 -5t-28 5q-14 6 -24 16t-16 24t-6 28t6 28t16 24q10 9 24 15t28 6t28 -6q13 -6 23 -15q10 -10 16 -24t6 -28t-6 -28t-16 -24z" />
    <glyph glyph-name="cedilla" unicode="&#xb8;" horiz-adv-x="568" 
d="M309 0h-20h-40q-11 -24 -45 -95q12 -6 47 -22q6 9 14 15q8 5 20 5q16 0 28 -11t12 -29q0 -21 -12 -33q-12 -11 -29 -11q-13 0 -24 7q-12 8 -16 24h-56q3 -20 11 -34t18 -22q18 -17 39 -21q20 -3 28 -3q49 0 72 29q24 30 24 64q0 39 -24 61q-25 23 -57 23q-5 0 -10 -1
q-4 -1 -7 -2q9 18 27 56z" />
    <glyph glyph-name="onesuperior" unicode="&#xb9;" horiz-adv-x="391" 
d="M243 758h-170v-72h88v-383h82v455z" />
    <glyph glyph-name="ordmasculine" unicode="&#xba;" horiz-adv-x="419" 
d="M41 603q0 -62 46 -113q45 -52 122 -52q74 0 122 50q47 50 47 117q0 62 -44 115q-44 52 -125 52q-79 -1 -124 -52q-44 -51 -44 -116v-1zM110 604q0 46 30 74q30 29 70 29q41 0 70 -30q28 -30 28 -72q0 -44 -30 -73q-30 -28 -69 -28q-41 0 -70 29t-29 70v1z" />
    <glyph glyph-name="guillemotright" unicode="&#xbb;" horiz-adv-x="399" 
d="M257 478h-82q27 -48 109 -191q-27 -48 -109 -191h82q27 48 108 191q-27 48 -108 191zM103 478h-81q26 -48 107 -191q-27 -48 -107 -191h81q27 48 108 191q-27 48 -108 191z" />
    <glyph glyph-name="onequarter" unicode="&#xbc;" horiz-adv-x="829" 
d="M589 758h-91q-82 -190 -326 -758h90q82 189 327 758zM652 349v-202h-133q33 51 133 202zM217 758h-170v-72h88v-383h82v455zM734 455h-82q-56 -79 -223 -315v-57h222v-83h83v83h48v64h-48v308z" />
    <glyph glyph-name="onehalf" unicode="&#xbd;" horiz-adv-x="864" 
d="M217 758h-170v-72h88v-383h82v455zM589 758h-91q-82 -190 -326 -758h90q82 189 327 758zM817 72h-194q31 30 63 61q31 31 64 62q33 32 49 62t16 70q0 65 -41 101t-115 36q-33 0 -69 -14q-37 -14 -63 -53q-16 -23 -21 -48q-5 -26 -5 -52h82q0 38 17 66q18 28 55 28t53 -22
q15 -21 15 -51q0 -25 -15 -48q-14 -23 -46 -53q-40 -38 -81 -76t-81 -75v-66h317v72z" />
    <glyph glyph-name="threequarters" unicode="&#xbe;" horiz-adv-x="935" 
d="M763 352v-205h-136q34 52 136 205zM702 758h-91q-81 -190 -325 -758h90q81 189 326 758zM845 455h-82q-56 -79 -223 -315v-57h222v-83h83v83h48v64h-48v308zM42 442q1 -20 6 -42t20 -43q22 -31 60 -47t78 -16q69 0 117 41q48 42 48 103q0 39 -24 71q-23 31 -62 46
q28 15 43 41t15 53q0 49 -38 83q-38 35 -96 35q-13 0 -30 -3q-16 -2 -33 -9q-30 -12 -55 -40t-26 -78h83q1 21 14 39t45 18q27 0 40 -18q13 -17 13 -38q0 -22 -20 -41t-56 -19h-25v-63h43q45 0 64 -25t19 -48q0 -33 -21 -54q-20 -21 -57 -21q-32 0 -55 19q-23 20 -25 56h-85
z" />
    <glyph glyph-name="questiondown" unicode="&#xbf;" horiz-adv-x="581" 
d="M251 347q-1 -28 -13 -62q-11 -34 -65 -85q-42 -39 -80 -86q-38 -46 -38 -113q0 -84 64 -150t169 -66q90 0 165 58q75 57 82 166v23h-117q0 -6 -1 -13q0 -7 -1 -13q-8 -52 -42 -81t-81 -29q-54 0 -85 34t-31 82q1 39 24 69t62 70q58 55 78 99q21 45 23 97h-113zM359 439
q-10 -10 -24 -16q-13 -5 -27 -5t-28 5q-14 6 -24 16q-9 10 -15 23q-6 14 -6 28t6 28q6 13 15 23q10 10 24 16t28 6t27 -6q14 -6 24 -16t16 -23q5 -14 5 -28t-5 -28q-6 -13 -16 -23z" />
    <glyph glyph-name="Agrave" unicode="&#xc0;" horiz-adv-x="743" 
d="M209 179h323q18 -45 72 -179h131q-76 189 -306 758h-110q-77 -190 -311 -758h131q18 45 70 179zM500 276h-258q32 86 128 341q32 -85 130 -341zM250 988q-9 -19 -36 -77q62 -31 249 -125q8 17 33 66q-62 34 -246 136z" />
    <glyph glyph-name="Aacute" unicode="&#xc1;" horiz-adv-x="743" 
d="M209 179h323q18 -45 72 -179h131q-76 189 -306 758h-110q-77 -190 -311 -758h131q18 45 70 179zM500 276h-258q32 86 128 341q32 -85 130 -341zM249 857q8 -17 33 -66q62 31 247 124q-9 20 -35 78q-62 -34 -245 -136z" />
    <glyph glyph-name="Acircumflex" unicode="&#xc2;" horiz-adv-x="743" 
d="M209 179h323q18 -45 72 -179h131q-76 189 -306 758h-110q-77 -190 -311 -758h131q18 45 70 179zM500 276h-258q32 86 128 341q32 -85 130 -341zM411 957h-75q-44 -36 -176 -147h111q25 19 101 76q25 -19 101 -76h111q-44 37 -173 147z" />
    <glyph glyph-name="Atilde" unicode="&#xc3;" horiz-adv-x="743" 
d="M209 179h323q18 -45 72 -179h131q-76 189 -306 758h-110q-77 -190 -311 -758h131q18 45 70 179zM500 276h-258q32 86 128 341q32 -85 130 -341zM530 942q-14 -13 -34 -20q-19 -7 -44 -7q-23 0 -43 5q-19 4 -39 11q-21 5 -44 10t-46 5q-30 0 -58 -11q-29 -11 -48 -27
q13 -24 40 -72q15 12 34 20q19 7 44 7q17 0 38 -4q20 -4 43 -11q23 -6 47 -11q24 -6 43 -6q29 0 56 10q28 10 51 30q-13 24 -40 71z" />
    <glyph glyph-name="Adieresis" unicode="&#xc4;" horiz-adv-x="743" 
d="M209 179h323q18 -45 72 -179h131q-76 189 -306 758h-110q-77 -190 -311 -758h131q18 45 70 179zM500 276h-258q32 86 128 341q32 -85 130 -341zM320 829q-10 -10 -24 -16t-28 -6q-15 0 -29 6t-24 16t-16 25q-6 14 -6 28t6 28q6 15 16 25t24 16t29 6q14 0 28 -6t24 -16
t16 -25q6 -14 6 -28t-6 -28q-6 -15 -16 -25zM529 829q-10 -10 -25 -16q-14 -6 -28 -6t-28 6q-15 6 -25 16t-16 25q-6 14 -6 28t6 28q6 15 16 25t25 16q14 6 28 6t28 -6q15 -6 25 -16t16 -25q6 -14 6 -28t-6 -28q-6 -15 -16 -25z" />
    <glyph glyph-name="Aring" unicode="&#xc5;" horiz-adv-x="743" 
d="M209 179h323q18 -45 72 -179h131q-76 189 -306 758h-110q-77 -190 -311 -758h131q18 45 70 179zM500 276h-258q32 86 128 341q32 -85 130 -341zM372 1007q-47 0 -80 -33t-33 -80q0 -46 33 -79q33 -34 80 -34t80 34q33 33 33 79q0 47 -33 80t-79 33h-1zM372 949
q23 0 38 -16q16 -16 16 -38t-16 -38q-16 -15 -38 -15q-23 0 -39 15q-16 16 -16 38q0 21 16 38q15 16 38 16h1z" />
    <glyph glyph-name="AE" unicode="&#xc6;" horiz-adv-x="984" 
d="M-9 0h144q33 48 130 191h265v-191h392v106h-274v225h270v105h-270v215h274v107h-406q-131 -190 -525 -758zM318 286l212 312v-312h-212z" />
    <glyph glyph-name="Ccedilla" unicode="&#xc7;" horiz-adv-x="830" 
d="M443 -13q129 3 223 73q95 70 130 170h-127q-5 -7 -14 -21q-9 -13 -24 -30q-28 -30 -76 -58q-48 -29 -120 -29q-42 0 -79 12q-38 11 -69 32q-58 38 -92 103q-34 64 -34 141q0 40 10 78t28 71q35 60 96 99q61 38 139 38q35 -1 65 -9q29 -7 54 -20q46 -24 75 -57t41 -57h128
q-10 28 -27 58q-18 30 -43 58q-47 54 -120 93q-73 40 -172 40q-61 0 -116 -16q-54 -16 -99 -45q-84 -53 -132 -141q-48 -89 -48 -190q0 -52 13 -101t36 -92q44 -79 121 -133q78 -53 176 -64q-14 -29 -41 -85q12 -6 47 -22q6 9 14 15q8 5 20 5q16 0 28 -11t13 -29
q-1 -21 -13 -33q-11 -11 -29 -11q-12 0 -23 7q-12 8 -17 24h-55q3 -20 10 -34q8 -14 18 -22q19 -17 39 -21q21 -3 28 -3q49 0 73 29q24 30 24 64q0 39 -25 61q-26 23 -57 23q-5 0 -10 -1l-8 -2q7 14 21 43z" />
    <glyph glyph-name="Egrave" unicode="&#xc8;" horiz-adv-x="550" 
d="M73 0h424v106h-303v225h299v105h-299v215h303v107h-424v-190v-568zM155 1001q-9 -19 -35 -76q62 -31 249 -124q8 16 31 65q-61 34 -245 135z" />
    <glyph glyph-name="Eacute" unicode="&#xc9;" horiz-adv-x="550" 
d="M73 0h424v106h-303v225h299v105h-299v215h303v107h-424v-190v-568zM150 870q8 -16 32 -65q62 31 248 125q-9 19 -36 77q-61 -34 -244 -137z" />
    <glyph glyph-name="Ecircumflex" unicode="&#xca;" horiz-adv-x="550" 
d="M73 0h424v106h-303v225h299v105h-299v215h303v107h-424v-190v-568zM313 971h-73q-45 -37 -178 -148h112q25 19 101 76q26 -19 101 -76h111q-43 37 -174 148z" />
    <glyph glyph-name="Edieresis" unicode="&#xcb;" horiz-adv-x="550" 
d="M73 0h424v106h-303v225h299v105h-299v215h303v107h-424v-190v-568zM222 842q-10 -10 -24 -16t-29 -6q-14 0 -28 6q-15 6 -25 16t-16 24q-6 15 -6 29t6 29q6 14 16 24t25 16q14 6 28 6q15 0 29 -6t24 -16q11 -10 17 -24q5 -15 5 -29t-5 -29q-6 -14 -17 -24zM432 842
q-10 -10 -25 -16q-14 -6 -28 -6q-15 0 -29 6t-24 16q-11 10 -17 24q-5 15 -5 29t5 29q6 14 17 24q10 10 24 16t29 6q14 0 28 -6q15 -6 25 -16t16 -24q6 -15 6 -29t-6 -29q-6 -14 -16 -24z" />
    <glyph glyph-name="Igrave" unicode="&#xcc;" horiz-adv-x="267" 
d="M73 0h121v758h-121v-190v-568zM-9 999l-36 -76q62 -32 249 -125q8 16 32 65q-62 34 -245 136z" />
    <glyph glyph-name="Iacute" unicode="&#xcd;" horiz-adv-x="267" 
d="M73 0h121v758h-121v-190v-568zM32 868l33 -66q61 31 247 125q-9 19 -36 78q-61 -35 -244 -137z" />
    <glyph glyph-name="Icircumflex" unicode="&#xce;" horiz-adv-x="267" 
d="M73 0h121v758h-121v-190v-568zM172 967h-74q-44 -37 -177 -148h112q25 19 101 76l100 -76h112q-43 37 -174 148z" />
    <glyph glyph-name="Idieresis" unicode="&#xcf;" horiz-adv-x="267" 
d="M73 0h121v758h-121v-190v-568zM81 840q-10 -10 -24 -16t-28 -6t-28 6t-24 16t-16 24t-6 28t6 28t16 24t24 16t28 6t28 -6t24 -16t16 -24t6 -28t-6 -28t-16 -24zM288 840q-10 -10 -24 -16t-28 -6t-28 6t-24 16t-16 24q-5 14 -5 28t5 28q6 14 16 24t24 16t28 6t28 -6
t24 -16t16 -24t6 -28t-6 -28t-16 -24z" />
    <glyph glyph-name="Eth" unicode="&#xd0;" horiz-adv-x="741" 
d="M73 438h-73v-32v-74h73v-332h254q184 0 279 107t95 273q0 74 -20 139q-19 64 -63 116q-64 81 -148 102t-160 21h-237v-320zM194 651h129q73 0 120 -22q47 -23 77 -58q32 -38 47 -88q15 -51 15 -105q0 -118 -64 -195q-63 -77 -196 -77h-128v226h176v106h-176v213z" />
    <glyph glyph-name="Ntilde" unicode="&#xd1;" horiz-adv-x="768" 
d="M186 758h-113v-190v-568h116q0 144 -2 578q99 -145 397 -578h110v758h-116q0 -144 2 -577q-99 144 -394 577zM542 940q-14 -13 -33 -20q-20 -7 -45 -7q-23 0 -43 5q-19 4 -40 10q-20 6 -43 11t-46 5q-30 0 -59 -11q-28 -11 -48 -27q14 -24 41 -73q16 13 35 20q19 8 43 8
q17 0 38 -4t43 -11q22 -6 47 -11q24 -6 43 -6q29 0 57 10q27 10 51 29q-14 24 -41 72z" />
    <glyph glyph-name="Ograve" unicode="&#xd2;" horiz-adv-x="871" 
d="M39 374q0 -102 49 -189q49 -88 134 -140q45 -28 99 -44q53 -15 113 -15t114 15t99 43q85 52 135 140q51 89 51 195q0 57 -16 110q-15 52 -42 97q-52 84 -141 135t-199 51q-56 0 -108 -14q-53 -14 -98 -41q-85 -49 -137 -138q-53 -88 -53 -204v-1zM159 380q0 40 10 78
q10 37 29 70q34 61 96 99q62 39 142 39q81 0 142 -40q62 -40 96 -101q18 -33 28 -71q10 -37 10 -76q0 -72 -33 -137q-33 -64 -91 -104q-32 -21 -70 -33t-81 -12q-78 0 -141 38q-62 37 -97 98q-20 33 -30 71t-10 80v1zM315 1001q-8 -19 -34 -76l248 -124q8 16 32 65
q-61 34 -246 135z" />
    <glyph glyph-name="Oacute" unicode="&#xd3;" horiz-adv-x="871" 
d="M39 374q0 -102 49 -189q49 -88 134 -140q45 -28 99 -44q53 -15 113 -15t114 15t99 43q85 52 135 140q51 89 51 195q0 57 -16 110q-15 52 -42 97q-52 84 -141 135t-199 51q-56 0 -108 -14q-53 -14 -98 -41q-85 -49 -137 -138q-53 -88 -53 -204v-1zM159 380q0 40 10 78
q10 37 29 70q34 61 96 99q62 39 142 39q81 0 142 -40q62 -40 96 -101q18 -33 28 -71q10 -37 10 -76q0 -72 -33 -137q-33 -64 -91 -104q-32 -21 -70 -33t-81 -12q-78 0 -141 38q-62 37 -97 98q-20 33 -30 71t-10 80v1zM310 870q8 -16 33 -65q62 31 248 125q-9 19 -36 77
q-61 -34 -245 -137z" />
    <glyph glyph-name="Ocircumflex" unicode="&#xd4;" horiz-adv-x="871" 
d="M39 374q0 -102 49 -189q49 -88 134 -140q45 -28 99 -44q53 -15 113 -15t114 15t99 43q85 52 135 140q51 89 51 195q0 57 -16 110q-15 52 -42 97q-52 84 -141 135t-199 51q-56 0 -108 -14q-53 -14 -98 -41q-85 -49 -137 -138q-53 -88 -53 -204v-1zM159 380q0 40 10 78
q10 37 29 70q34 61 96 99q62 39 142 39q81 0 142 -40q62 -40 96 -101q18 -33 28 -71q10 -37 10 -76q0 -72 -33 -137q-33 -64 -91 -104q-32 -21 -70 -33t-81 -12q-78 0 -141 38q-62 37 -97 98q-20 33 -30 71t-10 80v1zM474 969h-74q-44 -37 -177 -148h112q25 19 101 76
q25 -19 101 -76h111q-43 37 -174 148z" />
    <glyph glyph-name="Otilde" unicode="&#xd5;" horiz-adv-x="871" 
d="M39 374q0 -102 49 -189q49 -88 134 -140q45 -28 99 -44q53 -15 113 -15t114 15t99 43q85 52 135 140q51 89 51 195q0 57 -16 110q-15 52 -42 97q-52 84 -141 135t-199 51q-56 0 -108 -14q-53 -14 -98 -41q-85 -49 -137 -138q-53 -88 -53 -204v-1zM159 380q0 40 10 78
q10 37 29 70q34 61 96 99q62 39 142 39q81 0 142 -40q62 -40 96 -101q18 -33 28 -71q10 -37 10 -76q0 -72 -33 -137q-33 -64 -91 -104q-32 -21 -70 -33t-81 -12q-78 0 -141 38q-62 37 -97 98q-20 33 -30 71t-10 80v1zM594 940q-15 -13 -34 -20q-20 -7 -45 -7q-22 0 -42 5
q-19 4 -40 10t-43 11q-23 5 -47 5q-29 0 -58 -11q-28 -11 -47 -27q13 -24 40 -73q16 13 34 20q19 8 43 8q18 0 38 -4q21 -4 43 -11q23 -6 47 -11q24 -6 43 -6q30 0 58 10q27 10 50 29q-13 24 -40 72z" />
    <glyph glyph-name="Odieresis" unicode="&#xd6;" horiz-adv-x="871" 
d="M39 374q0 -102 49 -189q49 -88 134 -140q45 -28 99 -44q53 -15 113 -15t114 15t99 43q85 52 135 140q51 89 51 195q0 57 -16 110q-15 52 -42 97q-52 84 -141 135t-199 51q-56 0 -108 -14q-53 -14 -98 -41q-85 -49 -137 -138q-53 -88 -53 -204v-1zM159 380q0 40 10 78
q10 37 29 70q34 61 96 99q62 39 142 39q81 0 142 -40q62 -40 96 -101q18 -33 28 -71q10 -37 10 -76q0 -72 -33 -137q-33 -64 -91 -104q-32 -21 -70 -33t-81 -12q-78 0 -141 38q-62 37 -97 98q-20 33 -30 71t-10 80v1zM383 842q-10 -10 -24 -16q-15 -6 -29 -6t-29 6
q-14 6 -24 16t-16 24q-6 15 -6 29t6 28q6 15 16 25t24 16q15 6 29 6t29 -6q14 -6 24 -16t16 -25q6 -14 6 -28t-6 -29q-6 -14 -16 -24zM591 842q-10 -10 -24 -16t-29 -6q-14 0 -28 6t-25 16q-10 10 -16 24q-5 15 -5 29t5 28q6 15 16 25q11 10 25 16t28 6q15 0 29 -6t24 -16
t16 -25q6 -14 6 -28t-6 -29q-6 -14 -16 -24z" />
    <glyph glyph-name="multiply" unicode="&#xd7;" horiz-adv-x="614" 
d="M128 0l179 179q45 -45 178 -179q19 18 74 74q-44 45 -178 179q45 44 179 177q-18 19 -74 74q-45 -45 -180 -178l-178 178q-18 -19 -74 -74q45 -44 179 -177q-44 -45 -179 -179z" />
    <glyph glyph-name="Oslash" unicode="&#xd8;" horiz-adv-x="871" 
d="M631 722q-47 26 -97 38t-98 12q-58 0 -112 -15q-53 -15 -99 -42q-84 -51 -135 -139t-51 -197q0 -103 39 -176q39 -72 87 -113q-31 -41 -92 -124h120q12 17 51 68q32 -19 79 -33q47 -15 111 -15q60 0 114 15t99 43q85 52 135 140q51 89 51 195q0 102 -41 174
q-40 73 -83 113l93 126h-120q-13 -18 -51 -70zM237 185q-35 34 -57 85q-21 52 -21 111q0 39 10 76q9 37 28 70q35 61 96 100q62 39 143 39q39 0 71 -10q32 -9 56 -24q-109 -149 -326 -447zM637 571q36 -40 55 -89q20 -50 20 -104q0 -38 -10 -75t-28 -70q-33 -61 -95 -101
q-61 -40 -143 -40q-38 0 -70 9t-56 24q109 149 327 446z" />
    <glyph glyph-name="Ugrave" unicode="&#xd9;" horiz-adv-x="672" 
d="M72 758v-473v-8q0 -65 13 -119q14 -57 70 -107q38 -37 90 -51t93 -14q56 0 101 18t79 48q50 42 66 100q16 55 16 126v7v473h-120v-473q0 -37 -3 -70q-4 -32 -25 -64q-16 -27 -46 -43t-69 -16t-70 17q-30 17 -47 44q-21 33 -24 64q-3 32 -3 68v473h-121zM182 994
q-8 -19 -35 -76q63 -31 249 -124q8 16 32 65q-61 34 -246 135z" />
    <glyph glyph-name="Uacute" unicode="&#xda;" horiz-adv-x="672" 
d="M72 758v-473v-8q0 -65 13 -119q14 -57 70 -107q38 -37 90 -51t93 -14q56 0 101 18t79 48q50 42 66 100q16 55 16 126v7v473h-120v-473q0 -37 -3 -70q-4 -32 -25 -64q-16 -27 -46 -43t-69 -16t-70 17q-30 17 -47 44q-21 33 -24 64q-3 32 -3 68v473h-121zM230 863
q9 -16 33 -65q62 31 248 125l-36 76q-61 -34 -245 -136z" />
    <glyph glyph-name="Ucircumflex" unicode="&#xdb;" horiz-adv-x="672" 
d="M72 758v-473v-8q0 -65 13 -119q14 -57 70 -107q38 -37 90 -51t93 -14q56 0 101 18t79 48q50 42 66 100q16 55 16 126v7v473h-120v-473q0 -37 -3 -70q-4 -32 -25 -64q-16 -27 -46 -43t-69 -16t-70 17q-30 17 -47 44q-21 33 -24 64q-3 32 -3 68v473h-121zM375 964h-74
q-44 -37 -177 -148h112l100 76q25 -19 101 -76h112q-44 37 -174 148z" />
    <glyph glyph-name="Udieresis" unicode="&#xdc;" horiz-adv-x="672" 
d="M72 758v-473v-8q0 -65 13 -119q14 -57 70 -107q38 -37 90 -51t93 -14q56 0 101 18t79 48q50 42 66 100q16 55 16 126v7v473h-120v-473q0 -37 -3 -70q-4 -32 -25 -64q-16 -27 -46 -43t-69 -16t-70 17q-30 17 -47 44q-21 33 -24 64q-3 32 -3 68v473h-121zM285 836
q-10 -10 -24 -16t-28 -6q-15 0 -29 6t-24 16t-16 24q-6 15 -6 29t6 28q6 15 16 25t24 16t29 6q14 0 28 -6t24 -16q11 -10 16 -25q6 -14 6 -28t-6 -29q-5 -14 -16 -24zM493 836q-10 -10 -24 -16q-15 -6 -29 -6t-28 6q-15 6 -25 16t-16 24q-5 15 -5 29t5 28q6 15 16 25t25 16
q14 6 28 6t29 -6q14 -6 24 -16t16 -25q6 -14 6 -28t-6 -29q-6 -14 -16 -24z" />
    <glyph glyph-name="Yacute" unicode="&#xdd;" horiz-adv-x="620" 
d="M250 0h121v269q59 122 237 489h-131q-42 -94 -167 -375q-41 94 -167 375h-131q60 -122 238 -489v-269zM218 863q8 -16 33 -65q62 31 248 125l-36 76q-61 -34 -245 -136z" />
    <glyph glyph-name="Thorn" unicode="&#xde;" horiz-adv-x="594" 
d="M69 0h120v153h107q82 0 125 12q43 13 82 44q35 28 57 79q22 52 22 106q0 55 -22 105q-22 51 -62 83q-34 26 -78 38q-45 12 -135 12h-96v126h-120v-190v-568zM189 525h101q39 0 67 -4q28 -5 54 -20q23 -14 39 -42t16 -67q0 -37 -16 -66q-15 -29 -38 -42q-25 -16 -53 -21
q-27 -5 -65 -5h-105v267z" />
    <glyph glyph-name="germandbls" unicode="&#xdf;" horiz-adv-x="648" 
d="M68 0h106v117q19 -65 70 -99q50 -34 122 -34q108 0 176 69t68 161q0 71 -45 127t-119 70q36 19 64 57t28 98q0 86 -61 147q-60 61 -162 61q-52 0 -104 -23q-53 -23 -89 -68q-33 -39 -44 -87q-10 -48 -10 -137v-139v-320zM174 485q0 37 4 69q4 31 20 60q14 27 41 44
q28 17 66 17q55 0 91 -33q35 -33 35 -92q0 -54 -35 -88q-36 -35 -86 -35h-31v-82h49q59 -1 88 -11t47 -26q27 -24 34 -52t7 -45q0 -52 -38 -90t-98 -38q-50 1 -87 32t-42 91h-65v279z" />
    <glyph glyph-name="agrave" unicode="&#xe0;" horiz-adv-x="708" 
d="M637 557h-107v-98q-19 40 -71 77t-135 37q-43 0 -81 -11q-39 -11 -72 -31q-60 -38 -97 -104q-36 -66 -36 -148q0 -41 9 -80q10 -39 29 -73q34 -63 97 -102q63 -40 151 -40q66 0 121 28q56 29 85 85v-97h107v557zM144 278q0 78 53 137q52 59 140 59q67 0 112 -33
q46 -33 66 -82q9 -19 13 -40q4 -17 4 -35q0 -4 -1 -8q0 -21 -5 -42t-14 -40q-21 -48 -65 -80q-44 -31 -108 -31q-35 0 -64 9q-28 10 -51 26q-40 29 -60 73q-19 45 -20 85v2zM225 819q-8 -19 -35 -77q63 -31 249 -125q8 17 32 66q-61 34 -246 136z" />
    <glyph glyph-name="aacute" unicode="&#xe1;" horiz-adv-x="708" 
d="M637 557h-107v-98q-19 40 -71 77t-135 37q-43 0 -81 -11q-39 -11 -72 -31q-60 -38 -97 -104q-36 -66 -36 -148q0 -41 9 -80q10 -39 29 -73q34 -63 97 -102q63 -40 151 -40q66 0 121 28q56 29 85 85v-97h107v557zM144 278q0 78 53 137q52 59 140 59q67 0 112 -33
q46 -33 66 -82q9 -19 13 -40q4 -17 4 -35q0 -4 -1 -8q0 -21 -5 -42t-14 -40q-21 -48 -65 -80q-44 -31 -108 -31q-35 0 -64 9q-28 10 -51 26q-40 29 -60 73q-19 45 -20 85v2zM226 687q8 -16 33 -65l248 124q-9 20 -36 78q-61 -34 -245 -137z" />
    <glyph glyph-name="acircumflex" unicode="&#xe2;" horiz-adv-x="708" 
d="M637 557h-107v-98q-19 40 -71 77t-135 37q-43 0 -81 -11q-39 -11 -72 -31q-60 -38 -97 -104q-36 -66 -36 -148q0 -41 9 -80q10 -39 29 -73q34 -63 97 -102q63 -40 151 -40q66 0 121 28q56 29 85 85v-97h107v557zM144 278q0 78 53 137q52 59 140 59q67 0 112 -33
q46 -33 66 -82q9 -19 13 -40q4 -17 4 -35q0 -4 -1 -8q0 -21 -5 -42t-14 -40q-21 -48 -65 -80q-44 -31 -108 -31q-35 0 -64 9q-28 10 -51 26q-40 29 -60 73q-19 45 -20 85v2zM384 788h-74q-44 -36 -177 -147h112q25 19 101 76l100 -76h112q-43 37 -174 147z" />
    <glyph glyph-name="atilde" unicode="&#xe3;" horiz-adv-x="708" 
d="M637 557h-107v-98q-19 40 -71 77t-135 37q-43 0 -81 -11q-39 -11 -72 -31q-60 -38 -97 -104q-36 -66 -36 -148q0 -41 9 -80q10 -39 29 -73q34 -63 97 -102q63 -40 151 -40q66 0 121 28q56 29 85 85v-97h107v557zM144 278q0 78 53 137q52 59 140 59q67 0 112 -33
q46 -33 66 -82q9 -19 13 -40q4 -17 4 -35q0 -4 -1 -8q0 -21 -5 -42t-14 -40q-21 -48 -65 -80q-44 -31 -108 -31q-35 0 -64 9q-28 10 -51 26q-40 29 -60 73q-19 45 -20 85v2zM506 760q-14 -13 -33 -21q-20 -7 -45 -7q-23 0 -42 5q-20 4 -40 11q-21 6 -43 11q-23 5 -47 5
q-30 0 -58 -11q-28 -12 -47 -28q13 -24 39 -73q16 13 35 21t43 8q17 0 38 -5q21 -4 43 -10q22 -7 47 -12q24 -5 43 -5q29 0 57 10q27 10 51 29q-14 24 -41 72z" />
    <glyph glyph-name="adieresis" unicode="&#xe4;" horiz-adv-x="708" 
d="M637 557h-107v-98q-19 40 -71 77t-135 37q-43 0 -81 -11q-39 -11 -72 -31q-60 -38 -97 -104q-36 -66 -36 -148q0 -41 9 -80q10 -39 29 -73q34 -63 97 -102q63 -40 151 -40q66 0 121 28q56 29 85 85v-97h107v557zM144 278q0 78 53 137q52 59 140 59q67 0 112 -33
q46 -33 66 -82q9 -19 13 -40q4 -17 4 -35q0 -4 -1 -8q0 -21 -5 -42t-14 -40q-21 -48 -65 -80q-44 -31 -108 -31q-35 0 -64 9q-28 10 -51 26q-40 29 -60 73q-19 45 -20 85v2zM290 660q-10 -10 -24 -16t-28 -6q-15 0 -29 6t-24 16t-16 24q-5 14 -5 28q0 15 5 29q6 14 16 24
t24 16t29 6q14 0 28 -6t24 -16t16 -24t6 -29q0 -14 -6 -28t-16 -24zM498 660q-10 -10 -24 -16t-29 -6q-14 0 -28 6t-24 16t-16 24t-6 28q0 15 6 29t16 24t24 16t28 6q15 0 29 -6t24 -16t16 -24t6 -29q0 -14 -6 -28t-16 -24z" />
    <glyph glyph-name="aring" unicode="&#xe5;" horiz-adv-x="708" 
d="M637 557h-107v-98q-19 40 -71 77t-135 37q-43 0 -81 -11q-39 -11 -72 -31q-60 -38 -97 -104q-36 -66 -36 -148q0 -41 9 -80q10 -39 29 -73q34 -63 97 -102q63 -40 151 -40q66 0 121 28q56 29 85 85v-97h107v557zM144 278q0 78 53 137q52 59 140 59q67 0 112 -33
q46 -33 66 -82q9 -19 13 -40q4 -17 4 -35q0 -4 -1 -8q0 -21 -5 -42t-14 -40q-21 -48 -65 -80q-44 -31 -108 -31q-35 0 -64 9q-28 10 -51 26q-40 29 -60 73q-19 45 -20 85v2zM338 831q-47 0 -80 -33q-34 -33 -34 -80q0 -46 34 -80q33 -33 80 -33t80 33q34 34 34 80
q0 47 -34 80q-33 33 -79 33h-1zM338 773q23 0 39 -16q15 -16 15 -38t-16 -38q-16 -15 -38 -15t-38 15q-16 16 -16 38t15 38q16 16 38 16h1z" />
    <glyph glyph-name="ae" unicode="&#xe6;" horiz-adv-x="1146" 
d="M1107 248q1 15 1 30q0 60 -19 109q-25 62 -64 101q-38 40 -90 63q-52 22 -111 22q-63 0 -114 -30q-52 -29 -82 -86v100h-99v-101q-25 53 -79 85q-53 32 -123 32q-82 0 -146 -37q-65 -38 -102 -101q-20 -34 -30 -74q-11 -40 -11 -83q0 -33 8 -69q9 -36 26 -70
q32 -63 95 -109t159 -46q69 0 125 34q55 34 78 87v-105h99v105q27 -56 79 -89q52 -32 120 -32q99 0 165 55q67 55 100 130h-110q-22 -32 -61 -63q-40 -31 -102 -31q-29 0 -70 13q-40 13 -71 49q-17 20 -29 47q-11 27 -15 64h473zM144 281q0 23 7 47q6 25 18 47q23 42 65 70
q42 29 103 29q42 0 78 -16q35 -15 61 -42t39 -62q14 -36 14 -76q0 -79 -55 -137t-134 -58q-83 0 -139 55q-57 56 -57 142v1zM636 322q5 23 14 50q9 26 34 53q29 31 64 44t72 13q66 0 116 -39t66 -121h-366z" />
    <glyph glyph-name="ccedilla" unicode="&#xe7;" horiz-adv-x="652" 
d="M343 -15q104 3 177 63q73 59 98 148h-109q-17 -42 -61 -77q-43 -35 -113 -36q-80 0 -135 55q-56 55 -56 141q0 41 15 78t40 61q29 27 61 41q33 13 75 13q57 0 105 -30q47 -30 69 -85h109q-26 101 -107 159q-80 57 -180 57q-44 0 -84 -11q-39 -11 -73 -32
q-62 -39 -99 -105t-37 -145q0 -115 70 -195q71 -80 177 -96l-39 -84q12 -6 47 -22q6 9 14 15q8 5 20 5q16 0 28 -11t13 -29q-1 -21 -13 -33q-12 -11 -29 -11q-13 0 -24 7q-11 8 -16 24h-56q3 -20 11 -34t18 -22q18 -17 39 -21q20 -3 28 -3q49 0 73 29q24 30 24 64
q0 39 -26 61q-25 23 -56 23q-5 0 -10 -1t-8 -2q6 13 20 41z" />
    <glyph glyph-name="egrave" unicode="&#xe8;" horiz-adv-x="649" 
d="M614 245q2 17 2 34q0 51 -16 99q-20 64 -70 114q-40 39 -92 60q-53 21 -113 21q-45 0 -84 -11q-40 -12 -74 -34q-63 -39 -99 -106q-37 -66 -37 -144q0 -39 10 -77t29 -72q36 -63 101 -104q66 -41 155 -41q42 0 82 11q41 12 76 36q36 23 64 57q29 35 49 81h-111
q-23 -44 -63 -69q-41 -25 -97 -25q-63 0 -124 43q-60 42 -64 127h476zM140 328q4 57 54 105q49 49 131 49h4q76 0 125 -49q51 -50 55 -105h-369zM205 819q-9 -19 -35 -77q62 -31 248 -125q8 17 33 66q-62 34 -246 136z" />
    <glyph glyph-name="eacute" unicode="&#xe9;" horiz-adv-x="649" 
d="M614 245q2 17 2 34q0 51 -16 99q-20 64 -70 114q-40 39 -92 60q-53 21 -113 21q-45 0 -84 -11q-40 -12 -74 -34q-63 -39 -99 -106q-37 -66 -37 -144q0 -39 10 -77t29 -72q36 -63 101 -104q66 -41 155 -41q42 0 82 11q41 12 76 36q36 23 64 57q29 35 49 81h-111
q-23 -44 -63 -69q-41 -25 -97 -25q-63 0 -124 43q-60 42 -64 127h476zM140 328q4 57 54 105q49 49 131 49h4q76 0 125 -49q51 -50 55 -105h-369zM198 687q8 -16 31 -65q63 31 249 124q-9 20 -37 78q-61 -34 -243 -137z" />
    <glyph glyph-name="ecircumflex" unicode="&#xea;" horiz-adv-x="649" 
d="M614 245q2 17 2 34q0 51 -16 99q-20 64 -70 114q-40 39 -92 60q-53 21 -113 21q-45 0 -84 -11q-40 -12 -74 -34q-63 -39 -99 -106q-37 -66 -37 -144q0 -39 10 -77t29 -72q36 -63 101 -104q66 -41 155 -41q42 0 82 11q41 12 76 36q36 23 64 57q29 35 49 81h-111
q-23 -44 -63 -69q-41 -25 -97 -25q-63 0 -124 43q-60 42 -64 127h476zM140 328q4 57 54 105q49 49 131 49h4q76 0 125 -49q51 -50 55 -105h-369zM362 788h-73q-44 -36 -176 -147h111q25 19 101 76q25 -19 101 -76h111q-44 37 -175 147z" />
    <glyph glyph-name="edieresis" unicode="&#xeb;" horiz-adv-x="649" 
d="M614 245q2 17 2 34q0 51 -16 99q-20 64 -70 114q-40 39 -92 60q-53 21 -113 21q-45 0 -84 -11q-40 -12 -74 -34q-63 -39 -99 -106q-37 -66 -37 -144q0 -39 10 -77t29 -72q36 -63 101 -104q66 -41 155 -41q42 0 82 11q41 12 76 36q36 23 64 57q29 35 49 81h-111
q-23 -44 -63 -69q-41 -25 -97 -25q-63 0 -124 43q-60 42 -64 127h476zM140 328q4 57 54 105q49 49 131 49h4q76 0 125 -49q51 -50 55 -105h-369zM272 660q-10 -10 -24 -16t-29 -6q-14 0 -28 6t-24 16q-11 10 -16 25q-6 14 -6 28t6 29q5 14 16 24q10 10 24 16t28 6
q15 0 29 -6t24 -16t16 -24q6 -15 6 -29t-6 -28q-6 -15 -16 -25zM479 660q-10 -10 -24 -16t-29 -6q-14 0 -28 6t-24 16q-11 10 -16 25q-6 14 -6 28t6 29q5 14 16 24q10 10 24 16t28 6q15 0 29 -6t24 -16t16 -24q6 -15 6 -29t-6 -28q-6 -15 -16 -25z" />
    <glyph glyph-name="igrave" unicode="&#xec;" horiz-adv-x="246" 
d="M70 0h106v557h-106v-140v-417zM-18 819q-9 -19 -35 -77q62 -31 249 -125q8 17 31 66q-61 34 -245 136z" />
    <glyph glyph-name="iacute" unicode="&#xed;" horiz-adv-x="246" 
d="M70 0h106v557h-106v-140v-417zM17 687q9 -16 33 -65l248 124q-9 20 -36 78q-61 -34 -245 -137z" />
    <glyph glyph-name="icircumflex" unicode="&#xee;" horiz-adv-x="246" 
d="M70 0h106v557h-106v-140v-417zM162 788h-74q-44 -36 -177 -147h113l100 76l100 -76h112q-44 37 -174 147z" />
    <glyph glyph-name="idieresis" unicode="&#xef;" horiz-adv-x="246" 
d="M70 0h106v557h-106v-140v-417zM71 660q-10 -9 -24 -15t-28 -6t-28 6t-24 15q-10 10 -16 24q-5 14 -5 28t5 28q6 14 16 24t24 16t28 6t28 -6t24 -16t16 -24q5 -14 5 -28t-5 -28q-6 -14 -16 -24zM280 660q-10 -9 -24 -15t-28 -6t-28 6t-24 15q-10 10 -16 24t-6 28t6 28
t16 24t24 16t28 6t28 -6t24 -16q9 -10 15 -24t6 -28t-6 -28t-15 -24z" />
    <glyph glyph-name="eth" unicode="&#xf0;" horiz-adv-x="671" 
d="M334 632q24 -13 51 -34t48 -45q12 -12 20 -24t15 -26q-29 31 -71 48q-43 17 -86 17q-37 0 -73 -10t-67 -28q-58 -35 -95 -99q-38 -64 -38 -153q0 -48 12 -90q12 -41 34 -74q40 -62 107 -96q66 -33 144 -33q43 0 83 11q40 12 74 33q64 39 102 109q39 70 39 162
q0 53 -12 107q-12 53 -36 98q-26 47 -64 86q-37 39 -79 65q45 13 133 37v74q-52 -15 -210 -58q-36 19 -68 33t-64 25l-111 -33q35 -12 68 -24q32 -13 62 -28q-51 -14 -154 -43v-74q59 17 236 67zM144 280q0 76 52 135q51 59 143 59q83 0 135 -60t52 -134t-50 -135t-140 -61
q-89 0 -140 58q-52 58 -52 137v1z" />
    <glyph glyph-name="ntilde" unicode="&#xf1;" horiz-adv-x="651" 
d="M70 0h106v310q0 72 37 117t116 46q81 1 114 -47q33 -49 33 -124v-302h108v327q0 30 -5 61t-16 59q-21 53 -69 89q-49 36 -136 37h-3q-72 0 -118 -29q-47 -30 -67 -73v86h-100v-140v-417zM484 760q-14 -13 -34 -21q-19 -7 -44 -7q-23 0 -43 5q-19 4 -39 11q-21 6 -44 11
t-47 5q-29 0 -57 -11q-29 -12 -48 -28q13 -24 40 -73q15 13 34 21t44 8q17 0 38 -5q20 -4 43 -10q22 -7 46 -12q25 -5 44 -5q29 0 56 10t51 29q-13 24 -40 72z" />
    <glyph glyph-name="ograve" unicode="&#xf2;" horiz-adv-x="671" 
d="M38 279q0 -73 33 -140q34 -66 97 -107q34 -22 76 -35q42 -12 91 -12t91 12q42 13 76 35q63 41 96 107q34 67 34 140q0 72 -34 139q-33 67 -96 108q-34 22 -76 35q-42 12 -91 12t-91 -12q-42 -13 -76 -35q-63 -41 -97 -108q-33 -66 -33 -138v-1zM144 279q0 83 56 139
q55 55 135 55t135 -55q55 -56 55 -139q0 -84 -55 -140q-55 -55 -135 -55t-135 55q-56 56 -56 139v1zM215 819q-9 -19 -35 -77q62 -31 249 -125q8 17 32 66q-62 34 -246 136z" />
    <glyph glyph-name="oacute" unicode="&#xf3;" horiz-adv-x="671" 
d="M38 279q0 -73 33 -140q34 -66 97 -107q34 -22 76 -35q42 -12 91 -12t91 12q42 13 76 35q63 41 96 107q34 67 34 140q0 72 -34 139q-33 67 -96 108q-34 22 -76 35q-42 12 -91 12t-91 -12q-42 -13 -76 -35q-63 -41 -97 -108q-33 -66 -33 -138v-1zM144 279q0 83 56 139
q55 55 135 55t135 -55q55 -56 55 -139q0 -84 -55 -140q-55 -55 -135 -55t-135 55q-56 56 -56 139v1zM208 687q8 -16 33 -65q62 31 247 124q-9 20 -35 78q-62 -34 -245 -137z" />
    <glyph glyph-name="ocircumflex" unicode="&#xf4;" horiz-adv-x="671" 
d="M38 279q0 -73 33 -140q34 -66 97 -107q34 -22 76 -35q42 -12 91 -12t91 12q42 13 76 35q63 41 96 107q34 67 34 140q0 72 -34 139q-33 67 -96 108q-34 22 -76 35q-42 12 -91 12t-91 -12q-42 -13 -76 -35q-63 -41 -97 -108q-33 -66 -33 -138v-1zM144 279q0 83 56 139
q55 55 135 55t135 -55q55 -56 55 -139q0 -84 -55 -140q-55 -55 -135 -55t-135 55q-56 56 -56 139v1zM374 788h-74q-44 -36 -177 -147h113l100 76l100 -76h112q-44 37 -174 147z" />
    <glyph glyph-name="otilde" unicode="&#xf5;" horiz-adv-x="671" 
d="M38 279q0 -73 33 -140q34 -66 97 -107q34 -22 76 -35q42 -12 91 -12t91 12q42 13 76 35q63 41 96 107q34 67 34 140q0 72 -34 139q-33 67 -96 108q-34 22 -76 35q-42 12 -91 12t-91 -12q-42 -13 -76 -35q-63 -41 -97 -108q-33 -66 -33 -138v-1zM144 279q0 83 56 139
q55 55 135 55t135 -55q55 -56 55 -139q0 -84 -55 -140q-55 -55 -135 -55t-135 55q-56 56 -56 139v1zM494 760q-15 -13 -34 -21q-19 -7 -45 -7q-23 0 -42 5q-19 4 -40 11q-20 6 -43 11q-24 5 -47 5q-29 0 -58 -11q-29 -12 -48 -28q14 -24 40 -73q16 13 35 21t44 8q17 0 37 -5
q21 -4 44 -10q22 -7 46 -12t43 -5q30 0 57 10t51 29q-14 24 -40 72z" />
    <glyph glyph-name="odieresis" unicode="&#xf6;" horiz-adv-x="671" 
d="M38 279q0 -73 33 -140q34 -66 97 -107q34 -22 76 -35q42 -12 91 -12t91 12q42 13 76 35q63 41 96 107q34 67 34 140q0 72 -34 139q-33 67 -96 108q-34 22 -76 35q-42 12 -91 12t-91 -12q-42 -13 -76 -35q-63 -41 -97 -108q-33 -66 -33 -138v-1zM144 279q0 83 56 139
q55 55 135 55t135 -55q55 -56 55 -139q0 -84 -55 -140q-55 -55 -135 -55t-135 55q-56 56 -56 139v1zM283 661q-10 -10 -24 -16t-28 -6t-28 6t-24 16q-10 9 -15 23q-6 14 -6 28t6 28q5 14 15 24t24 16t28 6t28 -6t24 -16t16 -24t6 -28t-6 -28t-16 -23zM490 660
q-10 -9 -24 -15t-28 -6t-28 6t-24 15q-10 10 -15 24q-6 14 -6 28t6 28q5 14 15 24t24 16t28 6t28 -6t24 -16t16 -24t6 -28t-6 -28t-16 -24z" />
    <glyph glyph-name="divide" unicode="&#xf7;" horiz-adv-x="614" 
d="M50 206h514v103h-514v-103zM356 435q-9 -9 -22 -15q-14 -5 -27 -5t-26 5q-13 6 -23 15q-9 10 -14 23q-6 13 -6 26t6 26q5 14 14 23q10 9 23 15q13 5 26 5t27 -5q13 -6 22 -15t15 -23q5 -13 5 -26t-5 -26q-6 -13 -15 -23zM356 -17q-9 -10 -22 -15q-14 -6 -27 -6t-26 6
q-13 5 -23 15q-9 9 -14 22q-6 13 -6 27q0 13 6 26q5 13 14 22q10 10 23 15q13 6 26 6t27 -6q13 -5 22 -15q9 -9 15 -22q5 -13 5 -26q0 -14 -5 -27q-6 -13 -15 -22z" />
    <glyph glyph-name="oslash" unicode="&#xf8;" horiz-adv-x="671" 
d="M511 592q-9 -13 -37 -52q-20 12 -56 23q-35 10 -82 10q-50 0 -92 -12q-42 -13 -76 -35q-63 -41 -97 -108q-33 -67 -33 -140q0 -64 24 -119q24 -56 63 -92l-75 -102h109q9 13 38 52q23 -13 58 -23t81 -10q90 0 155 40q66 41 101 104q20 34 30 72q10 39 10 79q0 61 -23 115
t-64 95q25 35 75 103h-109zM194 154q-22 20 -36 52t-14 73q0 82 55 138t137 56q23 0 42 -5q20 -5 36 -14q-74 -100 -220 -300zM477 401q21 -20 35 -51q13 -31 13 -71q0 -80 -52 -138q-53 -58 -138 -58q-22 0 -42 6q-19 5 -35 14q73 100 219 298z" />
    <glyph glyph-name="ugrave" unicode="&#xf9;" horiz-adv-x="652" 
d="M583 557h-107v-311q0 -72 -37 -117t-115 -46q-83 0 -116 48q-33 49 -33 124v302h-106v-36v-291q0 -56 17 -112q18 -56 65 -92q25 -19 61 -31q35 -11 82 -11h4q72 0 117 29q47 30 67 73v-86h101v557zM173 819q-9 -19 -36 -77q62 -31 249 -125q8 17 33 66q-62 34 -246 136z
" />
    <glyph glyph-name="uacute" unicode="&#xfa;" horiz-adv-x="652" 
d="M583 557h-107v-311q0 -72 -37 -117t-115 -46q-83 0 -116 48q-33 49 -33 124v302h-106v-36v-291q0 -56 17 -112q18 -56 65 -92q25 -19 61 -31q35 -11 82 -11h4q72 0 117 29q47 30 67 73v-86h101v557zM221 687q8 -16 32 -65q62 31 249 124q-9 20 -37 78q-61 -34 -244 -137z
" />
    <glyph glyph-name="ucircumflex" unicode="&#xfb;" horiz-adv-x="652" 
d="M583 557h-107v-311q0 -72 -37 -117t-115 -46q-83 0 -116 48q-33 49 -33 124v302h-106v-36v-291q0 -56 17 -112q18 -56 65 -92q25 -19 61 -31q35 -11 82 -11h4q72 0 117 29q47 30 67 73v-86h101v557zM365 788h-74q-44 -36 -177 -147h112q25 19 101 76l100 -76h112
q-44 37 -174 147z" />
    <glyph glyph-name="udieresis" unicode="&#xfc;" horiz-adv-x="652" 
d="M583 557h-107v-311q0 -72 -37 -117t-115 -46q-83 0 -116 48q-33 49 -33 124v302h-106v-36v-291q0 -56 17 -112q18 -56 65 -92q25 -19 61 -31q35 -11 82 -11h4q72 0 117 29q47 30 67 73v-86h101v557zM276 659q-10 -10 -24 -16q-15 -6 -29 -6t-29 6q-14 6 -24 16t-16 25
q-6 14 -6 28q0 15 6 29t16 25q10 10 24 16q15 6 29 6t29 -6q14 -6 24 -16q10 -11 16 -25t6 -29q0 -14 -6 -28q-6 -15 -16 -25zM484 659q-10 -10 -24 -16q-15 -6 -29 -6t-29 6q-14 6 -24 16t-16 25q-6 14 -6 28q0 15 6 29t16 24q10 11 24 17q15 6 29 6t29 -6q14 -6 24 -17
q10 -10 16 -24t6 -29q0 -14 -6 -28q-6 -15 -16 -25z" />
    <glyph glyph-name="yacute" unicode="&#xfd;" horiz-adv-x="545" 
d="M126 -203h114l304 760h-115q-39 -102 -156 -407q-38 101 -153 407h-115q53 -135 213 -541q-23 -54 -92 -219zM181 687q8 -16 32 -65q62 31 249 124q-9 20 -37 78q-61 -34 -244 -137z" />
    <glyph glyph-name="thorn" unicode="&#xfe;" horiz-adv-x="706" 
d="M70 -203h106v225v70q23 -38 75 -73t135 -35q79 0 142 37t99 100q20 33 30 72q11 39 11 82q0 71 -31 139q-30 68 -90 110q-33 23 -73 36t-89 13q-60 0 -118 -26t-91 -83v68v226h-106v-145v-816zM561 279q0 -80 -54 -138t-140 -58q-44 0 -80 17q-36 16 -62 43
q-25 28 -40 63q-14 34 -14 70q0 41 15 77t41 63t62 42t78 15q89 0 141 -58q53 -59 53 -135v-1z" />
    <glyph glyph-name="ydieresis" unicode="&#xff;" horiz-adv-x="545" 
d="M126 -203h114l304 760h-115q-39 -102 -156 -407q-38 101 -153 407h-115q53 -135 213 -541q-23 -54 -92 -219zM221 660q-10 -10 -24 -16t-28 -6t-28 6t-24 16t-16 24t-6 28q0 15 6 29t16 24t24 16q14 5 28 5t28 -5q14 -6 24 -16t16 -24t6 -29q0 -14 -6 -28t-16 -24z
M428 660q-10 -10 -24 -16t-28 -6t-28 6t-24 16t-16 24t-6 28q0 15 6 29t16 24t24 16q14 5 28 5t28 -5q14 -6 24 -16t16 -24t6 -29q0 -14 -6 -28t-16 -24z" />
    <glyph glyph-name="dotlessi" unicode="&#x131;" horiz-adv-x="246" 
d="M70 0h106v557h-106v-140v-417z" />
    <glyph glyph-name="Lslash" unicode="&#x141;" horiz-adv-x="469" 
d="M4 218q19 14 74 54v-272h388v106h-267v251q33 25 133 99v122q-34 -25 -133 -97v277h-121v-364q-19 -13 -74 -54v-34v-88z" />
    <glyph glyph-name="lslash" unicode="&#x142;" horiz-adv-x="294" 
d="M92 303v-303h107v371q20 14 82 57v110q-21 -14 -82 -57v277h-107v-344q-18 -12 -70 -48v-29v-83q17 12 70 49z" />
    <glyph glyph-name="OE" unicode="&#x152;" horiz-adv-x="1154" 
d="M823 651h275v107h-391v-66v-67q-30 59 -100 103t-176 44q-114 0 -201 -52q-88 -53 -137 -137q-26 -45 -40 -97t-14 -108q0 -107 49 -195q50 -88 133 -139q45 -28 98 -43t111 -15q81 0 155 38q75 38 122 109v-66v-67h391v106h-275v225h270v105h-270v215zM159 378
q0 40 9 78q10 38 28 72q34 61 94 99q61 39 142 39q121 0 197 -84q75 -83 77 -201q0 -40 -10 -78t-28 -71q-34 -62 -95 -101q-60 -39 -142 -39q-44 0 -82 12q-38 13 -70 34q-57 40 -89 104q-31 65 -31 135v1z" />
    <glyph glyph-name="oe" unicode="&#x153;" horiz-adv-x="1139" 
d="M1100 249q2 18 2 35q0 47 -16 92q-23 62 -68 108q-39 41 -92 64q-54 23 -115 23q-34 0 -64 -7q-29 -7 -54 -19q-46 -22 -75 -54q-30 -32 -44 -60q-29 61 -92 102q-64 40 -145 40q-48 0 -89 -12q-41 -11 -75 -33q-64 -40 -100 -106q-35 -67 -35 -144q0 -36 9 -72
q9 -37 27 -70q34 -64 99 -108q64 -44 159 -44q90 0 151 40q62 41 91 103q23 -50 81 -97q57 -46 158 -46q52 0 95 15q43 16 80 44q41 31 62 66q21 34 32 60h-110q-22 -44 -64 -69q-43 -25 -98 -25q-70 0 -124 45t-59 129h473zM144 279q0 88 58 141q58 54 134 54q85 0 137 -62
q51 -62 51 -134q0 -46 -22 -90q-22 -45 -62 -72q-21 -16 -48 -24q-26 -9 -56 -9q-82 0 -137 57q-55 56 -55 138v1zM631 323q9 70 60 114q52 43 121 43q81 0 128 -51q46 -52 53 -106h-362z" />
    <glyph glyph-name="Scaron" unicode="&#x160;" horiz-adv-x="561" 
d="M35 224q1 -110 69 -174q67 -64 180 -64q121 0 183 68q61 69 61 161t-55 137q-56 44 -127 74q-91 34 -135 58q-43 24 -43 79q0 49 34 78q35 29 81 29q65 0 86 -38t27 -69h119q-2 41 -14 73t-31 55q-35 44 -85 63q-51 18 -98 18q-31 0 -62 -7t-58 -21q-52 -25 -86 -73
q-33 -48 -33 -117q0 -37 11 -66t29 -51q33 -40 78 -60q45 -19 74 -29q73 -27 121 -51q48 -25 48 -88q0 -51 -38 -86t-88 -35q-11 0 -25 3q-13 2 -27 8q-27 12 -50 41q-22 29 -26 84h-120zM69 961q43 -37 174 -148h74l176 148h-112l-100 -76q-26 19 -101 76h-111z" />
    <glyph glyph-name="scaron" unicode="&#x161;" horiz-adv-x="477" 
d="M421 412q-4 60 -33 95q-30 35 -68 50q-21 9 -43 13q-21 3 -41 3q-77 0 -132 -44q-56 -45 -56 -125q1 -62 41 -94q41 -32 99 -50q75 -24 108 -45q34 -20 35 -61q0 -36 -27 -60q-26 -23 -64 -23q-30 0 -63 19q-33 20 -36 71h-105q2 -62 34 -100q31 -39 74 -58
q22 -10 47 -15q24 -4 48 -4q83 0 141 50q57 49 57 127v5q-1 31 -9 54q-9 24 -23 41q-26 31 -67 46q-40 15 -82 27q-45 12 -72 30q-28 18 -29 51q-1 27 20 49q20 22 59 22q41 1 61 -20q20 -22 20 -54h106zM27 782q43 -37 174 -147h74q44 37 176 147h-112q-25 -19 -100 -75
q-25 19 -101 75h-111z" />
    <glyph glyph-name="Ydieresis" unicode="&#x178;" horiz-adv-x="620" 
d="M250 0h121v269q59 122 237 489h-131q-42 -94 -167 -375q-41 94 -167 375h-131q60 -122 238 -489v-269zM257 837q-10 -10 -24 -16t-28 -6t-28 6t-24 16t-16 24t-6 28t6 28t16 24t24 16t28 6t28 -6t24 -16t16 -24t6 -28t-6 -28t-16 -24zM467 837q-10 -10 -24 -16t-28 -6
q-15 0 -29 6t-24 16t-15 24q-6 14 -6 28t6 28q5 14 15 24t24 16t29 6q14 0 28 -6t24 -16t15 -24q6 -14 6 -28t-6 -28q-5 -14 -15 -24z" />
    <glyph glyph-name="Zcaron" unicode="&#x17d;" horiz-adv-x="511" 
d="M489 664v94h-477v-14v-93h341q-83 -143 -335 -573v-78h481v106h-334q81 140 324 558zM41 954q43 -36 174 -146h75q44 37 176 146h-112q-25 -19 -100 -75q-25 19 -101 75h-112z" />
    <glyph glyph-name="zcaron" unicode="&#x17e;" horiz-adv-x="437" 
d="M14 0h409v83h-282q69 97 274 390v84h-392v-83h274q-71 -99 -283 -398v-10v-66zM15 779q44 -36 174 -146h75q44 36 175 146h-111q-25 -19 -101 -76l-100 76h-112z" />
    <glyph glyph-name="florin" unicode="&#x192;" 
d="M396 528q5 29 13 63q7 34 27 55q12 15 28 23q17 9 39 12q7 1 14 1h13q6 29 16 87q-9 2 -19 2q-10 1 -18 1q-45 0 -81 -14q-37 -15 -63 -41q-37 -36 -54 -84t-25 -105h-121v-83h106q-19 -105 -75 -421q-10 -53 -33 -96t-101 -43q-11 0 -18 2t-16 4q-6 -32 -18 -97
q15 -4 32 -6q17 -1 27 -1q54 0 101 20t79 62q27 37 39 79q12 43 20 91q25 135 74 406h120v83h-106z" />
    <glyph glyph-name="circumflex" unicode="&#x2c6;" horiz-adv-x="568" 
d="M323 788h-74q-44 -36 -177 -147h111q26 19 102 76l100 -76h112q-44 37 -174 147z" />
    <glyph glyph-name="caron" unicode="&#x2c7;" horiz-adv-x="568" 
d="M72 782q43 -37 174 -147h75q44 37 176 147h-112q-25 -19 -101 -75q-25 19 -101 75h-111z" />
    <glyph glyph-name="uni02c9" unicode="&#x2c9;" horiz-adv-x="568" 
d="M467 753h-367v-85h367v85z" />
    <glyph glyph-name="breve" unicode="&#x2d8;" horiz-adv-x="568" 
d="M80 767q16 -63 74 -93q59 -31 130 -31q83 0 139 34q55 34 65 90h-87q-12 -19 -42 -32q-31 -12 -72 -12q-26 0 -44 3q-19 3 -33 8q-15 6 -25 15q-10 8 -18 18h-87z" />
    <glyph glyph-name="dotaccent" unicode="&#x2d9;" horiz-adv-x="568" 
d="M336 781h-104v-138h104v138z" />
    <glyph glyph-name="ring" unicode="&#x2da;" horiz-adv-x="568" 
d="M284 831q-47 0 -80 -33t-33 -80q0 -46 33 -80q33 -33 80 -33q46 0 80 33q33 34 33 80q0 47 -33 80t-79 33h-1zM284 773q23 0 38 -16q16 -16 16 -38t-16 -38q-16 -15 -38 -15q-23 0 -39 15q-16 16 -16 38t16 38q15 16 38 16h1z" />
    <glyph glyph-name="ogonek" unicode="&#x2db;" horiz-adv-x="568" 
d="M276 0q-37 -24 -62 -49t-25 -63q0 -41 30 -70t85 -29q26 0 43 5t32 10v62q-15 -6 -27 -9t-25 -3q-25 0 -43 17q-19 17 -19 42q0 30 23 49q22 19 49 38h-18h-43z" />
    <glyph glyph-name="tilde" unicode="&#x2dc;" horiz-adv-x="568" 
d="M442 760q-14 -13 -34 -21q-19 -7 -44 -7q-23 0 -42 5q-20 4 -40 11q-21 6 -44 11t-47 5q-29 0 -57 -11q-29 -12 -48 -28q13 -24 40 -73q16 13 35 21q18 8 43 8q17 0 38 -5q20 -4 43 -10q23 -7 47 -12t43 -5q30 0 57 10t50 29q-13 24 -40 72z" />
    <glyph glyph-name="hungarumlaut" unicode="&#x2dd;" horiz-adv-x="568" 
d="M97 676q14 -14 54 -55q44 35 177 141q-15 16 -61 63q-42 -37 -170 -149zM297 676q13 -14 53 -55q45 35 178 141q-15 16 -61 63q-43 -37 -170 -149z" />
    <glyph glyph-name="uni03a9" unicode="&#x3a9;" horiz-adv-x="774" 
d="M202 89h-155v-89h274v66q-57 35 -103 121t-46 206q0 122 59 204t158 82q36 0 67 -12q30 -13 54 -34q44 -40 67 -104t23 -132q0 -129 -46 -212q-45 -83 -101 -119v-66h272v89h-157v3q53 46 97 131q45 85 45 197q0 46 -11 91t-31 85q-39 75 -109 124q-71 50 -169 50
q-93 0 -166 -45q-73 -46 -115 -121q-22 -41 -34 -89q-13 -48 -13 -101q0 -109 43 -191t97 -131v-3z" />
    <glyph glyph-name="uni03bc" unicode="&#x3bc;" horiz-adv-x="615" 
d="M66 -190h106v181v69q12 -20 43 -46q31 -25 92 -25q46 0 75 19t45 42q9 12 14 23l10 20v-93h102v557h-107v-270q0 -46 -8 -84q-9 -38 -27 -65q-17 -26 -43 -40q-26 -15 -62 -15q-28 0 -56 11q-29 12 -49 40q-19 28 -24 62q-5 35 -5 68v293h-106v-187v-560z" />
    <glyph glyph-name="pi" unicode="&#x3c0;" horiz-adv-x="635" 
d="M607 474q3 23 9 92h-442q-66 0 -106 -9t-61 -23l15 -72q17 5 43 9q26 3 70 3q-1 -35 -4 -77t-8 -86q-10 -84 -26 -168t-35 -143h106q19 52 35 138q16 85 26 171q5 46 9 88q3 43 5 77h174v-320q0 -63 5 -101t13 -53h106q-6 24 -11 60q-5 37 -5 101v313h82z" />
    <glyph glyph-name="uni2010" unicode="&#x2010;" horiz-adv-x="281" 
d="M0 343v-32v-73h281v105h-281z" />
    <glyph glyph-name="endash" unicode="&#x2013;" horiz-adv-x="512" 
d="M36 343v-105h440v105h-440z" />
    <glyph glyph-name="emdash" unicode="&#x2014;" horiz-adv-x="1024" 
d="M36 343v-105h952v105h-952z" />
    <glyph glyph-name="quoteleft" unicode="&#x2018;" horiz-adv-x="304" 
d="M185 758h-95q22 -53 89 -212h83q-19 53 -77 212z" />
    <glyph glyph-name="quoteright" unicode="&#x2019;" horiz-adv-x="304" 
d="M42 546h83q22 53 90 212h-96q-19 -53 -77 -212z" />
    <glyph glyph-name="quotesinglbase" unicode="&#x201a;" horiz-adv-x="304" 
d="M42 -91h83q22 53 90 212h-96q-19 -53 -77 -212z" />
    <glyph glyph-name="quotedblleft" unicode="&#x201c;" horiz-adv-x="483" 
d="M207 758h-95q22 -53 89 -212h83q-20 53 -77 212zM352 758h-95q22 -53 89 -212h83q-19 53 -77 212z" />
    <glyph glyph-name="quotedblright" unicode="&#x201d;" horiz-adv-x="483" 
d="M54 546h83q22 53 89 212h-95q-19 -53 -77 -212zM200 546h83q22 53 89 212h-96z" />
    <glyph glyph-name="quotedblbase" unicode="&#x201e;" horiz-adv-x="483" 
d="M54 -91h83q22 53 89 212h-95q-19 -53 -77 -212zM200 -91h83q22 53 89 212h-96z" />
    <glyph glyph-name="dagger" unicode="&#x2020;" horiz-adv-x="642" 
d="M375 758h-108v-199h-174v-92h174v-650h108v650h174v92h-174v199z" />
    <glyph glyph-name="daggerdbl" unicode="&#x2021;" horiz-adv-x="642" 
d="M375 758h-107v-168h-175v-93h175v-372h-175v-93h175v-215h107v215h174v93h-174v372h174v93h-174v168z" />
    <glyph glyph-name="bullet" unicode="&#x2022;" horiz-adv-x="590" 
d="M296 511q-55 0 -91 -38t-36 -89t36 -89q37 -37 90 -37q52 0 89 37t37 89t-36 90q-37 37 -88 37h-1z" />
    <glyph glyph-name="ellipsis" unicode="&#x2026;" horiz-adv-x="1024" 
d="M223 16q-10 -10 -24 -16q-13 -6 -27 -6t-28 6t-24 16t-16 23q-5 14 -5 28t5 28q6 14 16 24t24 16q14 5 28 5t27 -5q14 -6 24 -16t16 -24t6 -28t-6 -28q-6 -13 -16 -23zM565 16q-10 -10 -24 -16t-28 -6t-28 6t-24 16q-9 10 -15 23q-6 14 -6 28t6 28t15 24q10 10 24 16
q14 5 28 5t28 -5q14 -6 24 -16q9 -10 15 -24t6 -28t-6 -28q-6 -13 -15 -23zM906 16q-10 -10 -24 -16t-28 -6t-27 6q-14 6 -24 16t-16 23q-6 14 -6 28t6 28t16 24t24 16q13 5 27 5t28 -5q14 -6 24 -16t16 -24q5 -14 5 -28t-5 -28q-6 -13 -16 -23z" />
    <glyph glyph-name="perthousand" unicode="&#x2030;" horiz-adv-x="1210" 
d="M30 595q0 -75 51 -125q51 -51 125 -51t126 51q51 50 51 125q0 74 -51 126q-51 51 -126 51t-125 -51q-51 -51 -51 -125v-1zM105 595q0 44 29 74q28 29 72 29t72 -29q29 -29 29 -73q0 -45 -29 -74t-72 -29q-44 0 -72 29q-29 30 -29 72v1zM430 163q0 -76 51 -127
q52 -50 126 -50q73 0 125 51q51 51 51 126q0 74 -51 126q-51 51 -125 51q-75 0 -126 -51t-51 -125v-1zM506 163q0 44 28 73q29 29 73 29q43 0 72 -29t29 -73q0 -45 -29 -74q-29 -30 -72 -30q-44 0 -73 30q-28 30 -28 73v1zM828 163q0 -76 52 -127q51 -50 125 -50
q73 0 125 51t52 126q0 74 -52 126q-51 51 -125 51q-75 0 -126 -51t-51 -125v-1zM903 163q0 44 29 73t73 29q43 0 72 -29t29 -73q0 -45 -29 -74q-29 -30 -72 -30q-44 0 -73 30t-29 73v1zM636 758h-80q-96 -190 -383 -758h80q96 189 383 758z" />
    <glyph glyph-name="guilsinglleft" unicode="&#x2039;" horiz-adv-x="240" 
d="M28 287q27 -48 107 -191h82q-27 48 -107 191q26 48 107 191h-82q-27 -48 -107 -191z" />
    <glyph glyph-name="guilsinglright" unicode="&#x203a;" horiz-adv-x="240" 
d="M104 478h-81q26 -48 107 -191q-27 -48 -107 -191h81q27 48 108 191q-27 48 -108 191z" />
    <glyph glyph-name="fraction" unicode="&#x2044;" horiz-adv-x="159" 
d="M-130 0h91q82 189 327 758h-91q-82 -190 -327 -758z" />
    <glyph glyph-name="uni20ac" unicode="&#x20ac;" horiz-adv-x="568" 
d="M424 351h-226v29v38h237q4 19 15 78h-246q11 90 42 136q31 45 90 45q44 0 76 -28t43 -81h99q-2 21 -9 45t-19 47q-23 45 -69 80q-45 34 -122 34q-115 0 -171 -77q-55 -78 -70 -201h-79q-3 -20 -14 -78h88v-19q-1 -9 -1 -19v-29h-73q-3 -19 -14 -78h92q14 -127 69 -207
t169 -80q85 0 151 46q66 47 75 170h-101q-13 -82 -50 -100q-36 -19 -68 -19q-62 0 -93 53q-32 52 -41 137h206q3 20 14 78z" />
    <glyph glyph-name="uni2113" unicode="&#x2113;" horiz-adv-x="541" 
d="M471 179q-21 -37 -58 -69q-37 -33 -84 -33q-44 0 -76 34q-31 35 -33 110v41q100 97 160 193q59 95 59 194q0 77 -35 131q-34 54 -108 54q-70 0 -125 -61t-55 -208v-284q-20 -20 -42 -38t-45 -37q10 -20 29 -61l30 24q15 13 29 24q1 -4 1 -7v-6q5 -76 49 -133
q43 -57 138 -57q64 0 119 34t94 110q-16 15 -47 45zM220 570q0 106 26 146q26 39 53 39q38 0 53 -29q16 -28 16 -75q0 -69 -43 -142q-42 -74 -105 -144v205z" />
    <glyph glyph-name="trademark" unicode="&#x2122;" horiz-adv-x="1014" 
d="M378 303h79v354q36 -88 145 -354h55q37 89 146 356v-356h79v455h-107q-36 -85 -144 -341q-37 85 -147 341h-106v-455zM124 303h84v384h108v71h-300v-71h108v-384z" />
    <glyph glyph-name="Omega" unicode="&#x2126;" horiz-adv-x="774" 
d="M202 89h-155v-89h274v66q-57 35 -103 121t-46 206q0 122 59 204t158 82q36 0 67 -12q30 -13 54 -34q44 -40 67 -104t23 -132q0 -129 -46 -212q-45 -83 -101 -119v-66h272v89h-157v3q53 46 97 131q45 85 45 197q0 46 -11 91t-31 85q-39 75 -109 124q-71 50 -169 50
q-93 0 -166 -45q-73 -46 -115 -121q-22 -41 -34 -89q-13 -48 -13 -101q0 -109 43 -191t97 -131v-3z" />
    <glyph glyph-name="uni212e" unicode="&#x212e;" horiz-adv-x="948" 
d="M910 368v11q0 57 -17 109q-17 53 -48 98q-58 84 -156 135t-216 51q-117 0 -215 -51t-156 -135q-31 -45 -48 -97q-17 -53 -17 -110t17 -109q17 -53 48 -98q58 -83 156 -134t215 -51q105 0 196 41q91 42 149 110h-62q-52 -59 -125 -94q-72 -36 -157 -36q-78 0 -147 32
t-120 85q-5 5 -7 11q-2 7 -2 14v214q0 2 1 3t4 1h707zM750 396q0 -2 -1 -4q-1 -3 -4 -3h-542q-3 0 -4 3q-1 2 -1 4v53v157q0 8 2 15q2 6 8 12q51 52 120 84t146 32q78 0 146 -31q68 -30 119 -81q6 -5 8 -12q3 -7 3 -14v-215z" />
    <glyph glyph-name="partialdiff" unicode="&#x2202;" horiz-adv-x="607" 
d="M112 710q21 18 57 35q35 17 85 17q83 0 138 -84q55 -83 55 -207v-21t-1 -21h-1q-12 22 -55 59q-43 36 -115 36q-93 0 -163 -75q-69 -76 -69 -205q0 -59 22 -116q23 -58 69 -95q24 -19 56 -31q31 -11 70 -11q50 0 92 16q41 17 75 48q62 57 94 157q32 101 32 228
q0 73 -12 132q-12 60 -33 107q-39 87 -103 130q-65 43 -138 43q-70 0 -117 -21q-46 -21 -72 -40q11 -27 34 -81zM270 81q-54 0 -87 46q-32 46 -32 115q0 79 42 137q41 58 103 58q57 0 93 -37q36 -38 46 -68q-6 -61 -27 -118q-20 -57 -53 -92q-17 -19 -38 -30t-46 -11h-1z
" />
    <glyph glyph-name="Delta" unicode="&#x2206;" horiz-adv-x="707" 
d="M32 0h643v69q-64 177 -255 707h-128l-260 -708v-17v-51zM142 88q37 96 147 385q14 45 33 99q20 53 27 83h4q9 -37 32 -96q22 -59 35 -102l138 -369h-416z" />
    <glyph glyph-name="product" unicode="&#x220f;" horiz-adv-x="769" 
d="M741 659v99h-713v-99h114v-763h107v763h270v-763h108v763h114z" />
    <glyph glyph-name="summation" unicode="&#x2211;" horiz-adv-x="602" 
d="M580 -104v101h-419v3q66 86 264 343q-60 80 -242 319v3h379v93h-526v-76q66 -89 266 -356q-69 -90 -277 -360v-18v-52h555z" />
    <glyph glyph-name="minus" unicode="&#x2212;" horiz-adv-x="614" 
d="M50 206h514v103h-514v-103z" />
    <glyph glyph-name="uni2215" unicode="&#x2215;" horiz-adv-x="159" 
d="M-130 0h91q82 189 327 758h-91q-82 -190 -327 -758z" />
    <glyph glyph-name="uni2219" unicode="&#x2219;" horiz-adv-x="304" 
d="M203 210q-10 -10 -23 -16q-14 -5 -27 -5q-14 0 -28 5q-13 6 -23 16q-9 9 -15 23q-5 13 -5 27q0 13 5 27q6 13 15 23q10 10 23 15q14 6 28 6q13 0 27 -6q13 -5 23 -15q9 -10 15 -23q6 -14 6 -27q0 -14 -6 -27q-6 -14 -15 -23z" />
    <glyph glyph-name="radical" unicode="&#x221a;" horiz-adv-x="631" 
d="M635 905h-77q-48 -212 -193 -848q-5 -24 -9 -48q-5 -24 -7 -41q0 1 -2 1q-4 17 -9 40q-6 22 -11 45q-42 126 -125 376q-42 -16 -166 -65q5 -16 19 -64l80 32q42 -123 168 -490h90q61 266 242 1062z" />
    <glyph glyph-name="infinity" unicode="&#x221e;" horiz-adv-x="844" 
d="M788 314q0 78 -45 125q-46 48 -116 48q-71 0 -117 -41t-84 -84q-42 53 -90 89q-47 36 -108 36q-75 0 -125 -50t-50 -128q0 -77 50 -126q50 -50 117 -50q66 0 113 38t90 89q55 -68 101 -98q46 -29 96 -29q65 0 117 48q51 49 51 132v1zM228 197q-48 0 -79 32q-30 33 -30 78
q0 49 27 84q28 35 77 35q56 0 93 -38q37 -37 72 -82q-33 -36 -71 -73q-38 -36 -88 -36h-1zM620 426q46 0 75 -32t29 -86q0 -39 -27 -75q-26 -36 -74 -36q-43 0 -78 27q-35 28 -86 88q27 30 67 72t92 42h2z" />
    <glyph glyph-name="integral" unicode="&#x222b;" horiz-adv-x="408" 
d="M386 918q-8 4 -26 8q-17 5 -36 5q-31 0 -61 -11q-31 -11 -53 -34q-33 -36 -47 -91q-15 -55 -15 -147q0 -133 8 -268t8 -277q0 -77 -9 -117t-24 -61q-9 -11 -23 -17q-13 -5 -26 -5q-16 0 -28 4q-13 4 -20 8q-5 -26 -16 -78q11 -6 32 -12t45 -6q36 0 69 16q34 16 54 51
q19 30 31 83t12 135q0 139 -8 272q-7 132 -7 262q0 73 7 119t26 69q10 14 25 21q15 6 30 6q11 0 21 -3t18 -7q4 25 13 75z" />
    <glyph glyph-name="approxequal" unicode="&#x2248;" 
d="M516 478q-22 -37 -45 -59q-23 -21 -56 -21q-27 0 -48 12q-21 11 -51 27q-21 12 -50 27q-28 15 -67 15q-49 0 -89 -30q-40 -29 -65 -76q14 -13 42 -37q20 31 44 55q24 25 60 25q27 0 50 -11q23 -12 48 -26q38 -22 65 -34q27 -11 60 -11q47 0 83 31t59 76q-13 13 -40 37z
M516 285q-23 -37 -45 -58q-23 -21 -55 -21q-29 0 -51 12t-49 27q-21 11 -49 26q-28 16 -68 16q-49 0 -89 -30t-65 -78q14 -12 42 -37q20 31 43 56q24 25 61 25q27 0 50 -11t48 -27q37 -20 64 -32t60 -12q49 0 84 31q36 31 59 76q-13 12 -40 37z" />
    <glyph glyph-name="notequal" unicode="&#x2260;" 
d="M435 551q-13 6 -51 22q-14 -31 -55 -123h-276v-66h250q-17 -38 -69 -153h-181v-65h156q-12 -26 -47 -104q13 -5 52 -22q14 31 56 126h279v65h-253q17 39 69 153h184v66h-159q11 25 45 101z" />
    <glyph glyph-name="lessequal" unicode="&#x2264;" 
d="M547 105v78q-105 50 -420 201v2q105 50 419 199v78q-122 -61 -487 -243v-71zM550 -3v66h-62h-434v-66h496z" />
    <glyph glyph-name="greaterequal" unicode="&#x2265;" 
d="M61 663v-78q105 -50 419 -200v-2q-104 -50 -419 -200v-78q122 61 487 244v70q-122 61 -487 244zM549 -3v66h-62h-432v-66h494z" />
    <glyph glyph-name="lozenge" unicode="&#x25ca;" horiz-adv-x="631" 
d="M573 378q-53 107 -213 430h-87q-54 -108 -216 -430q53 -107 212 -429h87q55 107 217 429zM477 376q-35 -71 -141 -282q-5 -10 -10 -28q-6 -18 -9 -29h-4q-2 10 -7 26t-12 32q-47 95 -140 286q34 69 139 277q7 16 12 31q5 16 8 30h3q3 -12 10 -30q6 -17 11 -31
q47 -94 140 -282z" />
    <glyph glyph-name="fi" unicode="&#xfb01;" horiz-adv-x="520" 
d="M344 474v-474h107v557h-264v33q0 26 5 43t13 28q14 21 35 25q20 4 35 4v82q-20 0 -43 -2t-45 -8q-42 -12 -74 -49q-32 -36 -32 -118v-38h-76v-15v-68h76v-474h106v474h157zM443 656q-9 -9 -21 -14t-24 -5t-24 5t-21 14q-8 8 -13 21q-5 12 -5 24t5 24t13 20q9 9 21 14
t24 5t24 -5t21 -14q8 -8 13 -20t5 -24t-5 -24q-5 -13 -13 -21z" />
    <glyph glyph-name="fl" unicode="&#xfb02;" horiz-adv-x="520" 
d="M344 474v-474h107v757h-107v-200h-157v33t6 42t15 28q16 21 40 24q24 4 42 4v84q-21 0 -45 -2q-25 -2 -49 -8q-45 -12 -80 -49q-35 -36 -35 -118v-38h-76v-15v-68h76v-474h106v474h157z" />
  </font>
</defs>
</svg>
